<svg xmlns="http://www.w3.org/2000/svg" viewBox="0.00 0.00 100.00 100.00" role="img" aria-label="Coleira &amp; Passaporte"><title>Coleira &amp; Passaporte</title><rect x="0.00" y="0.00" width="100.00" height="100.00" fill="#F4EFE6"/><path fill="#1B2B44" d="M67.39 78.51 57.3 66.69 53.22 71.59Q49.29 76.31 43.23 77.35Q37.17 78.38 31.89 75.23Q26.61 72.07 24.65 66.24Q22.69 60.42 24.99 54.71Q27.28 49.01 32.74 46.17L37.62 43.63L36.2 41.96Q33.28 38.54 33.28 34.04Q33.27 29.54 36.19 26.12Q39.1 22.69 43.54 21.97Q47.98 21.25 51.83 23.58Q55.67 25.91 57.09 30.18Q58.51 34.45 56.82 38.62Q55.13 42.79 51.14 44.87L49.2 45.88L57.23 55.3L60.49 51.38C61.31 53.85 63.37 55.74 65.94 56.32L62.07 60.96L72.98 73.74Q73.21 74.02 73.39 74.34Q73.56 74.65 73.67 75Q73.79 75.34 73.83 75.7Q73.87 76.06 73.84 76.42Q73.81 76.78 73.72 77.13Q73.62 77.47 73.45 77.8Q73.29 78.12 73.06 78.4Q72.84 78.69 72.57 78.92Q72.29 79.16 71.97 79.33Q71.66 79.51 71.32 79.62Q70.97 79.73 70.61 79.77Q70.25 79.82 69.89 79.79Q69.53 79.76 69.18 79.66Q68.84 79.56 68.51 79.4Q68.19 79.23 67.91 79.01Q67.62 78.79 67.39 78.51ZM52.47 61.02 42.51 49.36 36.13 52.68Q33.08 54.27 31.8 57.46Q30.51 60.64 31.61 63.9Q32.7 67.16 35.65 68.92Q38.6 70.69 41.99 70.11Q45.38 69.53 47.58 66.89ZM44.3 40.15 47.74 38.35Q49.34 37.52 50.01 35.86Q50.68 34.2 50.12 32.5Q49.55 30.79 48.02 29.86Q46.49 28.93 44.71 29.22Q42.94 29.51 41.78 30.87Q40.62 32.24 40.62 34.03Q40.62 35.83 41.79 37.19Z"/><path fill="#C8694A" d="M73.03 49.03C73.03 52.04 70.59 54.48 67.59 54.48C64.58 54.48 62.14 52.04 62.14 49.03C62.14 46.03 64.58 43.59 67.59 43.59C70.59 43.59 73.03 46.03 73.03 49.03Z"/></svg>