<svg xmlns="http://www.w3.org/2000/svg" viewBox="-5.00 -5.00 74.29 110.00" role="img" aria-label="Coleira &amp; Passaporte"><title>Coleira &amp; Passaporte</title><path fill="#F7F5F0" d="M15.27 1.39C16.16 0.5 17.38 0 18.64 0H45.65C46.91 0 48.12 0.5 49.01 1.39L62.89 15.27C63.78 16.16 64.29 17.38 64.29 18.64V86.9C64.29 94.14 58.42 100 51.19 100H13.1C5.86 100 0 94.14 0 86.9V18.64C0 17.38 0.5 16.16 1.39 15.27ZM45.48 17.86C45.48 10.49 39.51 4.52 32.14 4.52C24.78 4.52 18.81 10.49 18.81 17.86C18.81 25.22 24.78 31.19 32.14 31.19C39.51 31.19 45.48 25.22 45.48 17.86ZM14.29 59.4Q13.92 59.4 13.57 59.48Q13.21 59.55 12.87 59.69Q12.54 59.82 12.24 60.03Q11.93 60.23 11.68 60.49Q11.42 60.74 11.22 61.04Q11.02 61.35 10.88 61.68Q10.74 62.02 10.67 62.38Q10.6 62.73 10.6 63.1Q10.6 63.46 10.67 63.82Q10.74 64.17 10.88 64.51Q11.02 64.84 11.22 65.15Q11.42 65.45 11.68 65.7Q11.93 65.96 12.24 66.16Q12.54 66.37 12.87 66.5Q13.21 66.64 13.57 66.71Q13.92 66.79 14.29 66.79H50Q50.36 66.79 50.72 66.71Q51.08 66.64 51.41 66.5Q51.75 66.37 52.05 66.16Q52.35 65.96 52.61 65.7Q52.87 65.45 53.07 65.15Q53.27 64.84 53.41 64.51Q53.55 64.17 53.62 63.82Q53.69 63.46 53.69 63.1Q53.69 62.73 53.62 62.38Q53.55 62.02 53.41 61.68Q53.27 61.35 53.07 61.04Q52.87 60.74 52.61 60.49Q52.35 60.23 52.05 60.03Q51.75 59.82 51.41 59.69Q51.08 59.55 50.72 59.48Q50.36 59.4 50 59.4ZM14.29 74.88Q13.92 74.88 13.57 74.95Q13.21 75.02 12.87 75.16Q12.54 75.3 12.24 75.5Q11.93 75.7 11.68 75.96Q11.42 76.22 11.22 76.52Q11.02 76.82 10.88 77.16Q10.74 77.49 10.67 77.85Q10.6 78.21 10.6 78.57Q10.6 78.93 10.67 79.29Q10.74 79.65 10.88 79.98Q11.02 80.32 11.22 80.62Q11.42 80.92 11.68 81.18Q11.93 81.44 12.24 81.64Q12.54 81.84 12.87 81.98Q13.21 82.12 13.57 82.19Q13.92 82.26 14.29 82.26H35.71Q36.08 82.26 36.43 82.19Q36.79 82.12 37.13 81.98Q37.46 81.84 37.76 81.64Q38.07 81.44 38.32 81.18Q38.58 80.92 38.78 80.62Q38.98 80.32 39.12 79.98Q39.26 79.65 39.33 79.29Q39.4 78.93 39.4 78.57Q39.4 78.21 39.33 77.85Q39.26 77.49 39.12 77.16Q38.98 76.82 38.78 76.52Q38.58 76.22 38.32 75.96Q38.07 75.7 37.76 75.5Q37.46 75.3 37.13 75.16Q36.79 75.02 36.43 74.95Q36.08 74.88 35.71 74.88Z"/><path fill="#F2B63D" d="M42.38 17.86C42.38 23.51 37.8 28.1 32.14 28.1C26.49 28.1 21.9 23.51 21.9 17.86C21.9 12.2 26.49 7.62 32.14 7.62C37.8 7.62 42.38 12.2 42.38 17.86ZM37.62 17.86C37.62 14.83 35.17 12.38 32.14 12.38C29.12 12.38 26.67 14.83 26.67 17.86C26.67 20.88 29.12 23.33 32.14 23.33C35.17 23.33 37.62 20.88 37.62 17.86Z"/></svg>