<svg xmlns="http://www.w3.org/2000/svg" viewBox="-17.00 -376.40 1054.65 458.74" role="img" aria-label="Coleira &amp; Passaporte"><title>Coleira &amp; Passaporte</title><path fill="#000000" d="M471.98 -353.19C474.04 -355.24 476.83 -356.4 479.74 -356.4H541.96C544.87 -356.4 547.66 -355.24 549.72 -353.19L581.69 -321.21C583.75 -319.16 584.91 -316.37 584.91 -313.46V-156.17C584.91 -139.51 571.4 -126 554.74 -126H466.96C450.3 -126 436.79 -139.51 436.79 -156.17V-313.46C436.79 -316.37 437.95 -319.16 440.01 -321.21ZM541.57 -315.26C541.57 -332.22 527.82 -345.98 510.85 -345.98C493.88 -345.98 480.13 -332.22 480.13 -315.26C480.13 -298.29 493.88 -284.54 510.85 -284.54C527.82 -284.54 541.57 -298.29 541.57 -315.26ZM469.71 -219.53Q468.87 -219.53 468.05 -219.37Q467.23 -219.2 466.45 -218.88Q465.68 -218.56 464.98 -218.1Q464.29 -217.63 463.69 -217.04Q463.1 -216.45 462.64 -215.75Q462.17 -215.06 461.85 -214.28Q461.53 -213.51 461.37 -212.69Q461.2 -211.87 461.2 -211.03Q461.2 -210.19 461.37 -209.37Q461.53 -208.55 461.85 -207.77Q462.17 -207 462.64 -206.3Q463.1 -205.61 463.69 -205.02Q464.29 -204.42 464.98 -203.96Q465.68 -203.49 466.45 -203.17Q467.23 -202.85 468.05 -202.69Q468.87 -202.53 469.71 -202.53H551.99Q552.83 -202.53 553.65 -202.69Q554.47 -202.85 555.25 -203.17Q556.02 -203.49 556.72 -203.96Q557.41 -204.42 558.01 -205.02Q558.6 -205.61 559.06 -206.3Q559.53 -207 559.85 -207.77Q560.17 -208.55 560.33 -209.37Q560.5 -210.19 560.5 -211.03Q560.5 -211.87 560.33 -212.69Q560.17 -213.51 559.85 -214.28Q559.53 -215.06 559.06 -215.75Q558.6 -216.45 558.01 -217.04Q557.41 -217.63 556.72 -218.1Q556.02 -218.56 555.25 -218.88Q554.47 -219.2 553.65 -219.37Q552.83 -219.53 551.99 -219.53ZM469.71 -183.87Q468.87 -183.87 468.05 -183.71Q467.23 -183.55 466.45 -183.23Q465.68 -182.91 464.98 -182.44Q464.29 -181.98 463.69 -181.38Q463.1 -180.79 462.64 -180.1Q462.17 -179.4 461.85 -178.63Q461.53 -177.85 461.37 -177.03Q461.2 -176.21 461.2 -175.37Q461.2 -174.53 461.37 -173.71Q461.53 -172.89 461.85 -172.12Q462.17 -171.34 462.64 -170.65Q463.1 -169.95 463.69 -169.36Q464.29 -168.77 464.98 -168.3Q465.68 -167.84 466.45 -167.52Q467.23 -167.2 468.05 -167.03Q468.87 -166.87 469.71 -166.87H519.08Q519.92 -166.87 520.74 -167.03Q521.56 -167.2 522.33 -167.52Q523.11 -167.84 523.8 -168.3Q524.5 -168.77 525.09 -169.36Q525.68 -169.95 526.15 -170.65Q526.61 -171.34 526.93 -172.12Q527.25 -172.89 527.42 -173.71Q527.58 -174.53 527.58 -175.37Q527.58 -176.21 527.42 -177.03Q527.25 -177.85 526.93 -178.63Q526.61 -179.4 526.15 -180.1Q525.68 -180.79 525.09 -181.38Q524.5 -181.98 523.8 -182.44Q523.11 -182.91 522.33 -183.23Q521.56 -183.55 520.74 -183.71Q519.92 -183.87 519.08 -183.87Z M534.44 -315.26C534.44 -302.23 523.88 -291.67 510.85 -291.67C497.82 -291.67 487.26 -302.23 487.26 -315.26C487.26 -328.28 497.82 -338.85 510.85 -338.85C523.88 -338.85 534.44 -328.28 534.44 -315.26ZM523.47 -315.26C523.47 -322.23 517.82 -327.87 510.85 -327.87C503.88 -327.87 498.23 -322.23 498.23 -315.26C498.23 -308.29 503.88 -302.64 510.85 -302.64C517.82 -302.64 523.47 -308.29 523.47 -315.26Z M786.7 1.5Q779.05 1.5 773.8 -1.9V24H760.1V-54H772.1V-51.05Q772.55 -51.4 773.05 -51.75Q778.3 -55.5 786 -55.5Q793.75 -55.5 799.5 -51.8Q805.25 -48.1 808.42 -41.67Q811.6 -35.25 811.6 -27Q811.6 -18.9 808.47 -12.45Q805.35 -6 799.75 -2.25Q794.15 1.5 786.7 1.5ZM470.2 0V-72H500.6Q501.65 -72 503.43 -71.92Q505.2 -71.85 506.6 -71.6Q513.05 -70.6 517.17 -67.35Q521.3 -64.1 523.25 -59.17Q525.2 -54.25 525.2 -48.2Q525.2 -42.15 523.23 -37.23Q521.25 -32.3 517.12 -29.05Q513 -25.8 506.6 -24.8Q505.2 -24.6 503.4 -24.5Q501.6 -24.4 500.6 -24.4H483.8V0ZM406.9 1.5Q400.9 1.5 395.5 -0.3Q390.1 -2.1 386.5 -6Q383.6 -9.25 382.28 -13Q380.95 -16.75 380.8 -21.1Q380.8 -25.4 382.05 -29.32Q383.3 -33.25 385.9 -36.3Q386.75 -37.3 387.7 -38.12Q388.65 -38.95 389.6 -39.7Q386.9 -42.8 385.55 -45.82Q384.2 -48.85 384.2 -52.8Q384.2 -59.35 387.78 -64.5Q391.35 -69.65 397.5 -71.8Q400.05 -72.7 402.65 -73Q405.25 -73.3 407.7 -73.3Q412.65 -73.3 417.15 -71.78Q421.65 -70.25 424.8 -66.8Q426.75 -64.8 428.02 -62.35Q429.3 -59.9 429.9 -57.4L416.4 -54.7Q415.8 -56.8 414.3 -58.3Q412.9 -59.75 411 -60.17Q409.1 -60.6 407.3 -60.6Q404.45 -60.6 402.3 -59.6Q400.05 -58.55 398.97 -56.85Q397.9 -55.15 397.9 -52.6Q397.9 -50.3 398.8 -48.95Q399.7 -47.6 400.9 -46.3Q401.75 -45.4 403.02 -44.2Q404.3 -43 405.7 -41.7L422.2 -26.4V-38.7H434V-25Q434 -22.7 433.9 -20.18Q433.8 -17.65 433.4 -16L442.2 -7.9L433.5 1.4L426.9 -4.9Q424.05 -2.45 420.82 -1Q417.6 0.45 414.3 1Q412.2 1.3 410.45 1.4Q408.7 1.5 406.9 1.5ZM105.9 1.5Q97.75 1.5 91.6 -2.15Q85.45 -5.8 82.02 -12.22Q78.6 -18.65 78.6 -27Q78.6 -35.45 82.1 -41.88Q85.6 -48.3 91.75 -51.9Q97.9 -55.5 105.9 -55.5Q114.05 -55.5 120.23 -51.85Q126.4 -48.2 129.85 -41.77Q133.3 -35.35 133.3 -27Q133.3 -18.6 129.83 -12.18Q126.35 -5.75 120.17 -2.12Q114 1.5 105.9 1.5ZM846.9 1.5Q838.75 1.5 832.6 -2.15Q826.45 -5.8 823.02 -12.22Q819.6 -18.65 819.6 -27Q819.6 -35.45 823.1 -41.88Q826.6 -48.3 832.75 -51.9Q838.9 -55.5 846.9 -55.5Q855.05 -55.5 861.23 -51.85Q867.4 -48.2 870.85 -41.77Q874.3 -35.35 874.3 -27Q874.3 -18.6 870.82 -12.18Q867.35 -5.75 861.17 -2.12Q855 1.5 846.9 1.5ZM37.9 1.5Q27.1 1.5 19.28 -3.2Q11.45 -7.9 7.22 -16.35Q3 -24.8 3 -36Q3 -47.2 7.22 -55.65Q11.45 -64.1 19.28 -68.8Q27.1 -73.5 37.9 -73.5Q50.3 -73.5 58.73 -67.35Q67.15 -61.2 70.6 -50.7L56.9 -46.9Q54.9 -53.45 50.15 -57.08Q45.4 -60.7 37.9 -60.7Q31.05 -60.7 26.47 -57.65Q21.9 -54.6 19.6 -49.05Q17.3 -43.5 17.3 -36Q17.3 -28.5 19.6 -22.95Q21.9 -17.4 26.47 -14.35Q31.05 -11.3 37.9 -11.3Q45.4 -11.3 50.15 -14.95Q54.9 -18.6 56.9 -25.1L70.6 -21.3Q67.15 -10.8 58.73 -4.65Q50.3 1.5 37.9 1.5ZM716.9 1.5Q711.1 1.5 707.07 -0.73Q703.05 -2.95 700.98 -6.67Q698.9 -10.4 698.9 -14.9Q698.9 -18.65 700.05 -21.75Q701.2 -24.85 703.77 -27.23Q706.35 -29.6 710.7 -31.2Q713.7 -32.3 717.85 -33.15Q722 -34 727.25 -34.8Q730.35 -35.25 733.8 -35.75Q733.4 -39.1 731.6 -40.85Q729.3 -43.1 723.9 -43.1Q720.9 -43.1 717.65 -41.65Q714.4 -40.2 713.1 -36.5L700.8 -40.4Q702.85 -47.1 708.5 -51.3Q714.15 -55.5 723.9 -55.5Q731.05 -55.5 736.6 -53.3Q742.15 -51.1 745 -45.7Q746.6 -42.7 746.9 -39.7Q747.2 -36.7 747.2 -33V0H735.3V-6.65Q732.1 -2.85 728.5 -0.95Q723.9 1.5 716.9 1.5ZM549.2 1.5Q543.4 1.5 539.38 -0.73Q535.35 -2.95 533.27 -6.67Q531.2 -10.4 531.2 -14.9Q531.2 -18.65 532.35 -21.75Q533.5 -24.85 536.08 -27.23Q538.65 -29.6 543 -31.2Q546 -32.3 550.15 -33.15Q554.3 -34 559.55 -34.8Q562.65 -35.25 566.1 -35.75Q565.7 -39.1 563.9 -40.85Q561.6 -43.1 556.2 -43.1Q553.2 -43.1 549.95 -41.65Q546.7 -40.2 545.4 -36.5L533.1 -40.4Q535.15 -47.1 540.8 -51.3Q546.45 -55.5 556.2 -55.5Q563.35 -55.5 568.9 -53.3Q574.45 -51.1 577.3 -45.7Q578.9 -42.7 579.2 -39.7Q579.5 -36.7 579.5 -33V0H567.6V-6.65Q564.4 -2.85 560.8 -0.95Q556.2 1.5 549.2 1.5ZM319.5 1.5Q313.7 1.5 309.68 -0.73Q305.65 -2.95 303.57 -6.67Q301.5 -10.4 301.5 -14.9Q301.5 -18.65 302.65 -21.75Q303.8 -24.85 306.38 -27.23Q308.95 -29.6 313.3 -31.2Q316.3 -32.3 320.45 -33.15Q324.6 -34 329.85 -34.8Q332.95 -35.25 336.4 -35.75Q336 -39.1 334.2 -40.85Q331.9 -43.1 326.5 -43.1Q323.5 -43.1 320.25 -41.65Q317 -40.2 315.7 -36.5L303.4 -40.4Q305.45 -47.1 311.1 -51.3Q316.75 -55.5 326.5 -55.5Q333.65 -55.5 339.2 -53.3Q344.75 -51.1 347.6 -45.7Q349.2 -42.7 349.5 -39.7Q349.8 -36.7 349.8 -33V0H337.9V-6.65Q334.7 -2.85 331.1 -0.95Q326.5 1.5 319.5 1.5ZM199 1.5Q190.7 1.5 184.38 -2.08Q178.05 -5.65 174.47 -11.93Q170.9 -18.2 170.9 -26.3Q170.9 -35.15 174.4 -41.7Q177.9 -48.25 184.05 -51.88Q190.2 -55.5 198.2 -55.5Q206.7 -55.5 212.65 -51.5Q218.6 -47.5 221.45 -40.25Q224.3 -33 223.45 -23.2H185.55Q186.2 -18.35 188.6 -15.35Q191.85 -11.2 198.2 -11.2Q202.2 -11.2 205.05 -12.95Q207.9 -14.7 209.4 -18L223 -14.1Q219.95 -6.7 213.38 -2.6Q206.8 1.5 199 1.5ZM993 1.5Q984.7 1.5 978.38 -2.08Q972.05 -5.65 968.48 -11.93Q964.9 -18.2 964.9 -26.3Q964.9 -35.15 968.4 -41.7Q971.9 -48.25 978.05 -51.88Q984.2 -55.5 992.2 -55.5Q1000.7 -55.5 1006.65 -51.5Q1012.6 -47.5 1015.45 -40.25Q1018.3 -33 1017.45 -23.2H979.55Q980.2 -18.35 982.6 -15.35Q985.85 -11.2 992.2 -11.2Q996.2 -11.2 999.05 -12.95Q1001.9 -14.7 1003.4 -18L1017 -14.1Q1013.95 -6.7 1007.38 -2.6Q1000.8 1.5 993 1.5ZM668.3 1.5Q658.1 1.5 651.82 -3.12Q645.55 -7.75 644.2 -16.2L658.1 -18.3Q658.95 -14.5 661.88 -12.35Q664.8 -10.2 669.3 -10.2Q673 -10.2 675 -11.62Q677 -13.05 677 -15.6Q677 -17.2 676.2 -18.18Q675.4 -19.15 672.62 -20.1Q669.85 -21.05 664 -22.6Q657.4 -24.3 653.45 -26.4Q649.5 -28.5 647.75 -31.42Q646 -34.35 646 -38.5Q646 -43.7 648.65 -47.52Q651.3 -51.35 656.12 -53.42Q660.95 -55.5 667.5 -55.5Q673.85 -55.5 678.75 -53.55Q683.65 -51.6 686.68 -48Q689.7 -44.4 690.4 -39.5L676.5 -37Q676.15 -40 673.9 -41.75Q671.65 -43.5 667.8 -43.8Q664.05 -44.05 661.77 -42.8Q659.5 -41.55 659.5 -39.2Q659.5 -37.8 660.48 -36.85Q661.45 -35.9 664.52 -34.9Q667.6 -33.9 673.9 -32.3Q680.05 -30.7 683.77 -28.58Q687.5 -26.45 689.2 -23.48Q690.9 -20.5 690.9 -16.3Q690.9 -8 684.9 -3.25Q678.9 1.5 668.3 1.5ZM613.6 1.5Q603.4 1.5 597.12 -3.12Q590.85 -7.75 589.5 -16.2L603.4 -18.3Q604.25 -14.5 607.17 -12.35Q610.1 -10.2 614.6 -10.2Q618.3 -10.2 620.3 -11.62Q622.3 -13.05 622.3 -15.6Q622.3 -17.2 621.5 -18.18Q620.7 -19.15 617.93 -20.1Q615.15 -21.05 609.3 -22.6Q602.7 -24.3 598.75 -26.4Q594.8 -28.5 593.05 -31.42Q591.3 -34.35 591.3 -38.5Q591.3 -43.7 593.95 -47.52Q596.6 -51.35 601.42 -53.42Q606.25 -55.5 612.8 -55.5Q619.15 -55.5 624.05 -53.55Q628.95 -51.6 631.98 -48Q635 -44.4 635.7 -39.5L621.8 -37Q621.45 -40 619.2 -41.75Q616.95 -43.5 613.1 -43.8Q609.35 -44.05 607.07 -42.8Q604.8 -41.55 604.8 -39.2Q604.8 -37.8 605.77 -36.85Q606.75 -35.9 609.83 -34.9Q612.9 -33.9 619.2 -32.3Q625.35 -30.7 629.07 -28.58Q632.8 -26.45 634.5 -23.48Q636.2 -20.5 636.2 -16.3Q636.2 -8 630.2 -3.25Q624.2 1.5 613.6 1.5ZM958.9 0Q953.3 1.05 947.92 0.92Q942.55 0.8 938.32 -0.97Q934.1 -2.75 931.9 -6.7Q929.9 -10.4 929.8 -14.22Q929.7 -18.05 929.7 -22.9V-43.5H920.5V-54H929.7V-69H943.3V-54H958.9V-43.5H943.3V-23.7Q943.3 -20.55 943.38 -18.02Q943.45 -15.5 944.4 -14Q946.2 -11.15 950.15 -10.9Q954.1 -10.65 958.9 -11.3ZM145.3 0V-73.5H158.9V0ZM264.3 0V-54H276.3V-45.3Q276.95 -46.5 277.8 -47.6Q279.55 -49.9 282.1 -51.4Q284.05 -52.6 286.35 -53.27Q288.65 -53.95 291.1 -54.12Q293.55 -54.3 296 -54V-41.3Q293.75 -42 290.77 -41.77Q287.8 -41.55 285.4 -40.4Q283 -39.3 281.35 -37.48Q279.7 -35.65 278.85 -33.18Q278 -30.7 278 -27.6V0ZM885.3 0V-54H897.3V-45.3Q897.95 -46.5 898.8 -47.6Q900.55 -49.9 903.1 -51.4Q905.05 -52.6 907.35 -53.27Q909.65 -53.95 912.1 -54.12Q914.55 -54.3 917 -54V-41.3Q914.75 -42 911.77 -41.77Q908.8 -41.55 906.4 -40.4Q904 -39.3 902.35 -37.48Q900.7 -35.65 899.85 -33.18Q899 -30.7 899 -27.6V0ZM235.7 0V-54H249.3V0ZM784.5 -10.6Q788.9 -10.6 791.7 -12.8Q794.5 -15 795.85 -18.73Q797.2 -22.45 797.2 -27Q797.2 -31.5 795.8 -35.23Q794.4 -38.95 791.48 -41.18Q788.55 -43.4 784 -43.4Q779.75 -43.4 777.12 -41.35Q774.5 -39.3 773.3 -35.6Q772.1 -31.9 772.1 -27Q772.1 -22.1 773.3 -18.4Q774.5 -14.7 777.23 -12.65Q779.95 -10.6 784.5 -10.6ZM846.9 -11.2Q853.45 -11.2 856.68 -15.62Q859.9 -20.05 859.9 -27Q859.9 -34.2 856.62 -38.5Q853.35 -42.8 846.9 -42.8Q842.45 -42.8 839.6 -40.8Q836.75 -38.8 835.38 -35.25Q834 -31.7 834 -27Q834 -19.75 837.27 -15.47Q840.55 -11.2 846.9 -11.2ZM105.9 -11.2Q112.45 -11.2 115.67 -15.62Q118.9 -20.05 118.9 -27Q118.9 -34.2 115.62 -38.5Q112.35 -42.8 105.9 -42.8Q101.45 -42.8 98.6 -40.8Q95.75 -38.8 94.38 -35.25Q93 -31.7 93 -27Q93 -19.75 96.28 -15.47Q99.55 -11.2 105.9 -11.2ZM483.8 -37.1H500Q501.05 -37.1 502.3 -37.2Q503.55 -37.3 504.6 -37.6Q507.35 -38.35 508.85 -40.12Q510.35 -41.9 510.93 -44.08Q511.5 -46.25 511.5 -48.2Q511.5 -50.15 510.93 -52.33Q510.35 -54.5 508.85 -56.27Q507.35 -58.05 504.6 -58.8Q503.55 -59.1 502.3 -59.2Q501.05 -59.3 500 -59.3H483.8ZM407.5 -11.4Q408.65 -11.4 409.7 -11.5Q410.75 -11.6 411.8 -11.8Q413.4 -12.1 414.72 -12.68Q416.05 -13.25 417.1 -14L399.5 -30.2Q398.45 -29.75 397.62 -29.1Q396.8 -28.45 396.2 -27.7Q395.4 -26.6 394.95 -25.15Q394.5 -23.7 394.5 -21.9Q394.5 -19.75 395.18 -18.18Q395.85 -16.6 396.8 -15.3Q398.45 -13.2 401.6 -12.3Q404.75 -11.4 407.5 -11.4ZM322.4 -9.2Q326.15 -9.2 328.72 -10.53Q331.3 -11.85 332.82 -13.55Q334.35 -15.25 334.9 -16.4Q335.95 -18.6 336.15 -21.55Q336.25 -23.3 336.25 -24.75Q332.9 -24.15 330.5 -23.75Q326.75 -23.05 324.45 -22.5Q322.15 -21.95 320.4 -21.3Q318.4 -20.5 317.18 -19.57Q315.95 -18.65 315.38 -17.55Q314.8 -16.45 314.8 -15.1Q314.8 -13.25 315.72 -11.93Q316.65 -10.6 318.35 -9.9Q320.05 -9.2 322.4 -9.2ZM552.1 -9.2Q555.85 -9.2 558.42 -10.53Q561 -11.85 562.52 -13.55Q564.05 -15.25 564.6 -16.4Q565.65 -18.6 565.85 -21.55Q565.95 -23.3 565.95 -24.75Q562.6 -24.15 560.2 -23.75Q556.45 -23.05 554.15 -22.5Q551.85 -21.95 550.1 -21.3Q548.1 -20.5 546.88 -19.57Q545.65 -18.65 545.08 -17.55Q544.5 -16.45 544.5 -15.1Q544.5 -13.25 545.42 -11.93Q546.35 -10.6 548.05 -9.9Q549.75 -9.2 552.1 -9.2ZM719.8 -9.2Q723.55 -9.2 726.12 -10.53Q728.7 -11.85 730.23 -13.55Q731.75 -15.25 732.3 -16.4Q733.35 -18.6 733.55 -21.55Q733.65 -23.3 733.65 -24.75Q730.3 -24.15 727.9 -23.75Q724.15 -23.05 721.85 -22.5Q719.55 -21.95 717.8 -21.3Q715.8 -20.5 714.57 -19.57Q713.35 -18.65 712.77 -17.55Q712.2 -16.45 712.2 -15.1Q712.2 -13.25 713.12 -11.93Q714.05 -10.6 715.75 -9.9Q717.45 -9.2 719.8 -9.2ZM1003.7 -33.3Q1003.1 -37.7 1001.4 -40.1Q998.75 -43.7 992.8 -43.7Q985.85 -43.7 982.6 -39.5Q980.7 -37.05 979.9 -33.3ZM209.7 -33.3Q209.1 -37.7 207.4 -40.1Q204.75 -43.7 198.8 -43.7Q191.85 -43.7 188.6 -39.5Q186.7 -37.05 185.9 -33.3ZM235.7 -61.5V-73.5H249.3V-61.5Z M433.14 62.34Q430.54 62.34 428.69 61.2Q426.83 60.06 425.84 58.03Q424.85 55.99 424.85 53.31Q424.85 50.62 425.84 48.59Q426.83 46.55 428.69 45.42Q430.54 44.28 433.14 44.28Q435.74 44.28 437.6 45.42Q439.46 46.55 440.46 48.59Q441.45 50.62 441.45 53.31Q441.45 55.99 440.46 58.03Q439.46 60.06 437.6 61.2Q435.74 62.34 433.14 62.34ZM310.7 62.34Q308.1 62.34 306.24 61.2Q304.39 60.06 303.39 58.03Q302.4 55.99 302.4 53.31Q302.4 50.62 303.39 48.59Q304.39 46.55 306.24 45.42Q308.1 44.28 310.7 44.28Q313.3 44.28 315.16 45.42Q317.02 46.55 318.01 48.59Q319 50.62 319 53.31Q319 55.99 318.01 58.03Q317.02 60.06 315.16 61.2Q313.3 62.34 310.7 62.34ZM652.33 61.98V44.64H659.5Q659.75 44.64 660.15 44.66Q660.54 44.68 660.88 44.74Q662.39 44.97 663.37 45.74Q664.35 46.51 664.82 47.68Q665.3 48.85 665.3 50.29Q665.3 52.41 664.23 53.92Q663.54 54.91 662.37 55.4L665.58 61.98H662.29L659.35 55.92H655.23V61.98ZM448.68 61.98V44.64H455.84Q456.09 44.64 456.49 44.66Q456.89 44.68 457.22 44.74Q458.73 44.97 459.71 45.74Q460.69 46.51 461.17 47.68Q461.64 48.85 461.64 50.29Q461.64 52.41 460.57 53.92Q459.88 54.91 458.72 55.4L461.92 61.98H458.63L455.69 55.92H451.58V61.98ZM530.45 61.98V44.64H533.06L539.06 56.92L545.06 44.64H547.67V61.98H544.96V50.86L539.64 61.98H538.48L533.17 50.86V61.98ZM565.49 61.98V44.64H572.65Q572.9 44.64 573.3 44.66Q573.7 44.68 574.04 44.74Q575.54 44.97 576.52 45.74Q577.5 46.51 577.98 47.68Q578.45 48.85 578.45 50.29Q578.45 51.71 577.97 52.88Q577.49 54.06 576.51 54.83Q575.53 55.6 574.04 55.83Q573.7 55.87 573.3 55.9Q572.89 55.92 572.65 55.92H568.39V61.98ZM326.23 61.98V44.64H329.17L337.21 56.86V44.64H340.15V61.98H337.21L329.17 49.76V61.98ZM671.84 61.98 677.3 44.64H681.55L687.02 61.98H684.03L682.84 58.22H676L674.82 61.98ZM479.75 61.98 485.22 44.64H489.47L494.93 61.98H491.95L490.76 58.22H483.92L482.74 61.98ZM354.75 62.34Q352.85 62.34 351.33 61.68Q349.8 61.01 348.82 59.78Q347.84 58.55 347.58 56.85L350.59 56.39Q350.97 57.93 352.17 58.77Q353.37 59.62 354.93 59.62Q355.86 59.62 356.68 59.33Q357.5 59.04 358.01 58.49Q358.52 57.93 358.52 57.13Q358.52 56.76 358.4 56.46Q358.28 56.15 358.04 55.91Q357.81 55.67 357.44 55.47Q357.08 55.27 356.59 55.13L352.11 53.8Q351.54 53.63 350.87 53.35Q350.2 53.07 349.6 52.57Q349.01 52.07 348.63 51.29Q348.25 50.52 348.25 49.37Q348.25 47.7 349.1 46.56Q349.95 45.42 351.39 44.86Q352.83 44.29 354.58 44.3Q356.36 44.31 357.76 44.91Q359.16 45.51 360.1 46.64Q361.04 47.77 361.42 49.37L358.3 49.91Q358.11 49 357.56 48.35Q357.01 47.71 356.23 47.37Q355.44 47.04 354.55 47.01Q353.68 47 352.94 47.27Q352.2 47.54 351.75 48.05Q351.3 48.55 351.3 49.23Q351.3 49.87 351.68 50.27Q352.07 50.67 352.64 50.91Q353.21 51.14 353.8 51.3L356.91 52.17Q357.54 52.33 358.34 52.62Q359.13 52.91 359.87 53.43Q360.6 53.95 361.08 54.79Q361.55 55.63 361.55 56.93Q361.55 58.28 360.99 59.3Q360.43 60.32 359.48 60.99Q358.53 61.66 357.31 62Q356.09 62.34 354.75 62.34ZM288.1 62.34Q285.5 62.34 283.64 61.2Q281.79 60.06 280.8 58.03Q279.8 55.99 279.8 53.31Q279.8 50.62 280.8 48.59Q281.79 46.55 283.64 45.42Q285.5 44.28 288.1 44.28Q291.1 44.28 293.09 45.78Q295.09 47.28 295.9 49.82L292.97 50.62Q292.47 48.93 291.25 47.97Q290.04 47.01 288.1 47.01Q286.35 47.01 285.19 47.79Q284.03 48.58 283.44 49.99Q282.86 51.41 282.85 53.31Q282.85 55.21 283.43 56.63Q284.02 58.04 285.18 58.82Q286.35 59.61 288.1 59.61Q290.04 59.61 291.25 58.64Q292.47 57.68 292.97 55.99L295.9 56.8Q295.09 59.34 293.09 60.84Q291.1 62.34 288.1 62.34ZM375.97 62.34Q373.89 62.34 372.32 61.5Q370.75 60.65 369.87 59.12Q368.98 57.6 368.98 55.54V44.66L371.92 44.64V55.46Q371.92 56.44 372.25 57.21Q372.58 57.98 373.15 58.52Q373.71 59.05 374.45 59.33Q375.18 59.61 375.97 59.61Q376.77 59.61 377.5 59.32Q378.23 59.04 378.8 58.5Q379.36 57.97 379.69 57.2Q380.01 56.43 380.01 55.46V44.64H382.95V55.54Q382.95 57.6 382.06 59.12Q381.18 60.65 379.61 61.5Q378.04 62.34 375.97 62.34ZM585.68 61.98V44.64H596.88V47.36H588.58V51.64H595.43V54.36H588.58V59.26H596.88V61.98ZM712.56 61.98V44.64H723.75V47.36H715.46V51.64H722.31V54.36H715.46V59.26H723.75V61.98ZM511.55 61.98V44.64H522.75V47.36H514.45V51.64H521.3V54.36H514.45V59.26H522.75V61.98ZM310.7 59.61Q312.44 59.62 313.6 58.84Q314.77 58.05 315.35 56.63Q315.93 55.21 315.93 53.31Q315.93 51.41 315.35 50Q314.77 48.6 313.6 47.82Q312.44 47.04 310.7 47.01Q308.95 47 307.8 47.78Q306.64 48.57 306.06 49.99Q305.47 51.41 305.47 53.31Q305.47 55.21 306.05 56.61Q306.63 58.02 307.79 58.8Q308.95 59.58 310.7 59.61ZM433.14 59.61Q434.89 59.62 436.05 58.84Q437.21 58.05 437.8 56.63Q438.38 55.21 438.38 53.31Q438.38 51.41 437.8 50Q437.21 48.6 436.05 47.82Q434.89 47.04 433.14 47.01Q431.4 47 430.24 47.78Q429.09 48.57 428.5 49.99Q427.92 51.41 427.92 53.31Q427.92 55.21 428.5 56.61Q429.07 58.02 430.24 58.8Q431.4 59.58 433.14 59.61ZM696.22 61.98 690.75 44.64H693.74L698.31 59.16L702.95 44.64H705.93L700.47 61.98ZM637.08 61.98V47.36H631.47V44.64H645.59V47.36H639.98V61.98ZM410.56 61.98V47.36H404.95V44.64H419.07V47.36H413.46V61.98ZM608.75 61.98V47.36H603.14V44.64H617.26V47.36H611.65V61.98ZM731.7 61.98V44.64H734.6V59.26H742.26V61.98ZM391.38 61.98V44.64H394.28V59.26H401.94V61.98ZM469.63 61.98V44.64H472.53V61.98ZM568.39 53.21H572.53Q572.77 53.21 573.07 53.19Q573.37 53.16 573.63 53.09Q574.35 52.91 574.76 52.45Q575.18 52 575.35 51.42Q575.53 50.84 575.53 50.29Q575.53 49.73 575.35 49.15Q575.18 48.57 574.76 48.11Q574.35 47.65 573.63 47.47Q573.37 47.4 573.07 47.38Q572.77 47.36 572.53 47.36H568.39ZM451.58 53.21H455.72Q455.96 53.21 456.26 53.19Q456.56 53.16 456.81 53.09Q457.54 52.91 457.95 52.45Q458.37 52 458.54 51.42Q458.72 50.84 458.72 50.29Q458.72 49.73 458.54 49.15Q458.37 48.57 457.95 48.11Q457.54 47.65 456.81 47.47Q456.56 47.4 456.26 47.38Q455.96 47.36 455.72 47.36H451.58ZM655.23 53.21H659.38Q659.62 53.21 659.92 53.19Q660.22 53.16 660.47 53.09Q661.19 52.91 661.61 52.45Q662.02 52 662.2 51.42Q662.37 50.84 662.37 50.29Q662.37 49.73 662.2 49.15Q662.02 48.57 661.61 48.11Q661.19 47.65 660.47 47.47Q660.22 47.4 659.92 47.38Q659.62 47.36 659.38 47.36H655.23ZM489.89 55.51 487.31 47.45 484.77 55.51ZM681.97 55.51 679.4 47.45 676.86 55.51Z"/></svg>