<svg xmlns="http://www.w3.org/2000/svg" viewBox="-14.05 -448.50 1016.90 525.80" role="img" aria-label="Coleira &amp; Passaporte"><title>Coleira &amp; Passaporte</title><path fill="#FFFFFF" d="M622.51 -302.17C622.51 -231.29 565.05 -173.83 494.17 -173.83C423.3 -173.83 365.84 -231.29 365.84 -302.17C365.84 -373.04 423.3 -430.5 494.17 -430.5C565.05 -430.5 622.51 -373.04 622.51 -302.17ZM599.17 -302.17C599.17 -360.16 552.16 -407.17 494.17 -407.17C436.19 -407.17 389.18 -360.16 389.18 -302.17C389.18 -244.18 436.19 -197.17 494.17 -197.17C552.16 -197.17 599.17 -244.18 599.17 -302.17ZM408.59 -227.17C408.59 -229.27 406.9 -230.97 404.8 -230.97C402.71 -230.97 401.01 -229.27 401.01 -227.17C401.01 -225.08 402.71 -223.38 404.8 -223.38C406.9 -223.38 408.59 -225.08 408.59 -227.17ZM436.14 -203.23C436.14 -205.32 434.45 -207.02 432.35 -207.02C430.26 -207.02 428.56 -205.32 428.56 -203.23C428.56 -201.13 430.26 -199.44 432.35 -199.44C434.45 -199.44 436.14 -201.13 436.14 -203.23ZM421.43 -214.12C421.43 -216.21 419.73 -217.91 417.63 -217.91C415.54 -217.91 413.84 -216.21 413.84 -214.12C413.84 -212.02 415.54 -210.33 417.63 -210.33C419.73 -210.33 421.43 -212.02 421.43 -214.12ZM612.08 -302.17Q612.08 -302.68 611.72 -303.04Q611.36 -303.41 610.84 -303.41Q610.33 -303.41 609.97 -303.04Q609.6 -302.68 609.6 -302.17Q609.6 -298.54 609.37 -294.92Q609.34 -294.41 609.68 -294.02Q610.02 -293.64 610.53 -293.6Q611.05 -293.57 611.43 -293.91Q611.82 -294.25 611.85 -294.76Q612.08 -298.46 612.08 -302.17ZM604.25 -259.91Q604.43 -260.39 604.23 -260.86Q604.02 -261.33 603.54 -261.51Q603.06 -261.7 602.59 -261.49Q602.12 -261.28 601.94 -260.8Q600.64 -257.41 599.13 -254.12Q598.91 -253.65 599.09 -253.17Q599.27 -252.69 599.74 -252.47Q600.2 -252.26 600.68 -252.44Q601.17 -252.62 601.38 -253.08Q602.92 -256.45 604.25 -259.91ZM611.2 -316.54Q611.14 -317.05 610.74 -317.36Q610.33 -317.68 609.82 -317.62Q609.31 -317.55 609 -317.15Q608.68 -316.74 608.74 -316.23Q609.18 -312.63 609.4 -309.01Q609.43 -308.5 609.81 -308.16Q610.2 -307.82 610.71 -307.85Q611.22 -307.88 611.56 -308.26Q611.9 -308.65 611.87 -309.16Q611.65 -312.86 611.2 -316.54ZM608.58 -273.64Q608.7 -274.14 608.44 -274.58Q608.17 -275.02 607.68 -275.15Q607.18 -275.27 606.74 -275Q606.3 -274.74 606.17 -274.24Q605.3 -270.72 604.2 -267.27Q604.04 -266.78 604.28 -266.32Q604.52 -265.86 605.01 -265.71Q605.5 -265.55 605.95 -265.79Q606.41 -266.03 606.56 -266.52Q607.68 -270.05 608.58 -273.64ZM392.07 -243.21Q392.32 -242.77 392.82 -242.64Q393.31 -242.5 393.76 -242.76Q394.2 -243.02 394.34 -243.51Q394.47 -244.01 394.21 -244.45Q392.4 -247.59 390.79 -250.84Q390.56 -251.3 390.07 -251.47Q389.58 -251.63 389.12 -251.4Q388.66 -251.17 388.5 -250.69Q388.34 -250.2 388.57 -249.74Q390.21 -246.42 392.07 -243.21ZM477.77 -418.93Q477.26 -418.85 476.95 -418.44Q476.64 -418.03 476.71 -417.53Q476.78 -417.02 477.19 -416.71Q477.6 -416.4 478.11 -416.47Q481.7 -416.98 485.32 -417.25Q485.83 -417.29 486.17 -417.68Q486.5 -418.07 486.46 -418.58Q486.42 -419.1 486.03 -419.43Q485.64 -419.76 485.13 -419.73Q481.43 -419.44 477.77 -418.93ZM506.5 -419.43Q505.99 -419.48 505.59 -419.16Q505.19 -418.83 505.14 -418.32Q505.08 -417.81 505.41 -417.41Q505.73 -417.02 506.24 -416.96Q509.85 -416.58 513.42 -415.98Q513.93 -415.89 514.35 -416.19Q514.77 -416.49 514.85 -416.99Q514.94 -417.5 514.64 -417.92Q514.34 -418.34 513.84 -418.42Q510.18 -419.04 506.5 -419.43ZM534.5 -412.96Q534.02 -413.14 533.55 -412.92Q533.09 -412.7 532.91 -412.22Q532.74 -411.74 532.95 -411.27Q533.17 -410.81 533.65 -410.63Q537.06 -409.39 540.39 -407.94Q540.86 -407.73 541.33 -407.92Q541.81 -408.11 542.02 -408.58Q542.22 -409.05 542.04 -409.53Q541.85 -410.01 541.38 -410.21Q537.98 -411.7 534.5 -412.96ZM450.01 -411.49Q449.53 -411.3 449.33 -410.82Q449.13 -410.35 449.32 -409.87Q449.51 -409.4 449.99 -409.2Q450.46 -409 450.94 -409.19Q454.3 -410.55 457.74 -411.69Q458.23 -411.85 458.46 -412.31Q458.69 -412.77 458.53 -413.26Q458.36 -413.75 457.9 -413.98Q457.45 -414.21 456.96 -414.05Q453.44 -412.88 450.01 -411.49ZM403.85 -377.96Q403.52 -377.56 403.57 -377.05Q403.61 -376.54 404.01 -376.21Q404.4 -375.88 404.91 -375.92Q405.42 -375.97 405.75 -376.36Q408.08 -379.14 410.59 -381.77Q410.94 -382.14 410.93 -382.65Q410.91 -383.17 410.54 -383.52Q410.17 -383.87 409.66 -383.86Q409.14 -383.85 408.79 -383.48Q406.24 -380.79 403.85 -377.96ZM376.72 -312.44Q376.67 -311.93 377 -311.54Q377.33 -311.14 377.84 -311.1Q378.36 -311.06 378.75 -311.39Q379.14 -311.72 379.19 -312.23Q379.5 -315.84 380.05 -319.43Q380.12 -319.93 379.82 -320.35Q379.51 -320.76 379.01 -320.84Q378.5 -320.91 378.08 -320.61Q377.67 -320.31 377.59 -319.8Q377.04 -316.13 376.72 -312.44ZM385.64 -256.1Q385.84 -255.62 386.32 -255.43Q386.79 -255.24 387.27 -255.44Q387.74 -255.64 387.93 -256.12Q388.12 -256.59 387.92 -257.07Q386.51 -260.4 385.3 -263.83Q385.13 -264.31 384.67 -264.53Q384.2 -264.75 383.72 -264.58Q383.24 -264.41 383.01 -263.95Q382.79 -263.49 382.96 -263Q384.19 -259.51 385.64 -256.1ZM590.76 -369.79Q590.46 -370.22 589.96 -370.3Q589.45 -370.39 589.03 -370.1Q588.61 -369.8 588.52 -369.3Q588.43 -368.79 588.73 -368.37Q590.81 -365.4 592.7 -362.31Q592.97 -361.87 593.46 -361.75Q593.96 -361.63 594.4 -361.89Q594.84 -362.16 594.96 -362.66Q595.08 -363.16 594.81 -363.6Q592.88 -366.76 590.76 -369.79ZM395.29 -366.38Q395.01 -365.95 395.12 -365.45Q395.22 -364.95 395.65 -364.67Q396.09 -364.39 396.59 -364.5Q397.09 -364.6 397.37 -365.03Q399.35 -368.08 401.51 -370.99Q401.81 -371.4 401.74 -371.91Q401.66 -372.42 401.25 -372.72Q400.84 -373.03 400.33 -372.95Q399.82 -372.88 399.52 -372.47Q397.31 -369.49 395.29 -366.38ZM376.34 -298.05Q376.36 -297.54 376.73 -297.19Q377.11 -296.84 377.62 -296.86Q378.14 -296.87 378.49 -297.25Q378.84 -297.63 378.82 -298.14Q378.69 -301.76 378.79 -305.39Q378.81 -305.9 378.45 -306.28Q378.1 -306.65 377.59 -306.66Q377.08 -306.68 376.7 -306.32Q376.33 -305.97 376.31 -305.46Q376.21 -301.75 376.34 -298.05ZM492.12 -420.05Q491.6 -420.05 491.25 -419.68Q490.89 -419.31 490.9 -418.79Q490.91 -418.28 491.28 -417.92Q491.65 -417.57 492.16 -417.58Q495.79 -417.64 499.41 -417.47Q499.92 -417.45 500.3 -417.8Q500.68 -418.14 500.71 -418.66Q500.73 -419.17 500.38 -419.55Q500.04 -419.93 499.52 -419.95Q495.82 -420.12 492.12 -420.05ZM380.84 -269.67Q380.98 -269.17 381.43 -268.92Q381.88 -268.68 382.37 -268.82Q382.86 -268.96 383.11 -269.41Q383.36 -269.86 383.22 -270.35Q382.22 -273.84 381.44 -277.38Q381.33 -277.88 380.9 -278.16Q380.47 -278.44 379.96 -278.32Q379.46 -278.21 379.19 -277.78Q378.91 -277.35 379.02 -276.85Q379.81 -273.23 380.84 -269.67ZM437.01 -405.29Q436.56 -405.04 436.42 -404.55Q436.28 -404.05 436.53 -403.6Q436.78 -403.16 437.27 -403.01Q437.77 -402.87 438.21 -403.12Q441.39 -404.88 444.66 -406.44Q445.13 -406.66 445.3 -407.14Q445.47 -407.62 445.25 -408.09Q445.03 -408.55 444.55 -408.72Q444.06 -408.9 443.6 -408.68Q440.25 -407.09 437.01 -405.29ZM520.7 -417.05Q520.2 -417.17 519.76 -416.89Q519.33 -416.62 519.21 -416.12Q519.1 -415.62 519.37 -415.19Q519.64 -414.75 520.14 -414.64Q523.67 -413.82 527.15 -412.78Q527.64 -412.64 528.09 -412.88Q528.55 -413.12 528.69 -413.62Q528.84 -414.11 528.6 -414.56Q528.35 -415.01 527.86 -415.16Q524.31 -416.22 520.7 -417.05ZM388.2 -353.85Q387.98 -353.39 388.14 -352.91Q388.31 -352.42 388.77 -352.2Q389.23 -351.97 389.72 -352.14Q390.2 -352.31 390.43 -352.77Q392.02 -356.03 393.81 -359.18Q394.07 -359.63 393.93 -360.12Q393.79 -360.62 393.35 -360.87Q392.9 -361.12 392.4 -360.99Q391.91 -360.85 391.66 -360.41Q389.83 -357.18 388.2 -353.85ZM571.53 -391.15Q571.14 -391.49 570.63 -391.45Q570.12 -391.42 569.78 -391.03Q569.44 -390.64 569.48 -390.13Q569.51 -389.62 569.9 -389.28Q572.64 -386.9 575.22 -384.35Q575.59 -383.99 576.1 -384Q576.61 -384 576.98 -384.37Q577.34 -384.73 577.33 -385.25Q577.33 -385.76 576.96 -386.12Q574.33 -388.72 571.53 -391.15ZM463.66 -416.06Q463.16 -415.92 462.91 -415.48Q462.65 -415.03 462.78 -414.54Q462.91 -414.04 463.36 -413.78Q463.8 -413.53 464.3 -413.66Q467.8 -414.6 471.36 -415.32Q471.86 -415.42 472.15 -415.85Q472.43 -416.27 472.33 -416.78Q472.23 -417.28 471.8 -417.56Q471.37 -417.85 470.87 -417.75Q467.24 -417.01 463.66 -416.06ZM382.69 -340.55Q382.53 -340.07 382.75 -339.61Q382.98 -339.14 383.46 -338.98Q383.95 -338.81 384.41 -339.04Q384.87 -339.26 385.04 -339.75Q386.22 -343.18 387.61 -346.52Q387.81 -347 387.61 -347.47Q387.42 -347.95 386.94 -348.15Q386.47 -348.34 385.99 -348.15Q385.52 -347.95 385.32 -347.48Q383.9 -344.06 382.69 -340.55ZM378.85 -326.68Q378.74 -326.18 379.02 -325.75Q379.3 -325.32 379.8 -325.21Q380.3 -325.1 380.73 -325.38Q381.16 -325.66 381.27 -326.17Q382.02 -329.71 383 -333.21Q383.14 -333.7 382.89 -334.15Q382.63 -334.6 382.14 -334.73Q381.64 -334.87 381.2 -334.62Q380.75 -334.37 380.61 -333.87Q379.62 -330.31 378.85 -326.68ZM377.72 -283.72Q377.8 -283.21 378.22 -282.91Q378.63 -282.61 379.14 -282.69Q379.65 -282.77 379.95 -283.19Q380.25 -283.6 380.17 -284.11Q379.6 -287.69 379.26 -291.3Q379.21 -291.82 378.82 -292.14Q378.42 -292.47 377.91 -292.42Q377.4 -292.37 377.07 -291.98Q376.74 -291.58 376.79 -291.07Q377.14 -287.38 377.72 -283.72ZM598.28 -246.81Q598.52 -247.27 598.37 -247.76Q598.22 -248.25 597.77 -248.49Q597.31 -248.73 596.82 -248.58Q596.33 -248.43 596.09 -247.98Q594.39 -244.77 592.49 -241.68Q592.22 -241.25 592.34 -240.75Q592.46 -240.25 592.89 -239.98Q593.33 -239.71 593.83 -239.83Q594.33 -239.95 594.6 -240.39Q596.54 -243.54 598.28 -246.81ZM424.87 -397.55Q424.46 -397.25 424.38 -396.75Q424.3 -396.24 424.6 -395.82Q424.9 -395.41 425.41 -395.33Q425.91 -395.25 426.33 -395.55Q429.26 -397.68 432.33 -399.62Q432.76 -399.9 432.87 -400.4Q432.98 -400.9 432.71 -401.34Q432.43 -401.77 431.93 -401.88Q431.43 -401.99 431 -401.72Q427.87 -399.73 424.87 -397.55ZM604.25 -344.42Q604.07 -344.9 603.6 -345.11Q603.13 -345.32 602.65 -345.13Q602.17 -344.95 601.96 -344.48Q601.75 -344.01 601.94 -343.53Q603.24 -340.15 604.32 -336.68Q604.47 -336.19 604.93 -335.96Q605.38 -335.72 605.87 -335.87Q606.36 -336.03 606.6 -336.48Q606.84 -336.94 606.69 -337.43Q605.58 -340.96 604.25 -344.42ZM608.58 -330.69Q608.45 -331.19 608.01 -331.45Q607.57 -331.72 607.08 -331.59Q606.58 -331.47 606.31 -331.03Q606.05 -330.59 606.17 -330.09Q607.05 -326.57 607.71 -323Q607.8 -322.5 608.22 -322.21Q608.64 -321.92 609.15 -322.01Q609.65 -322.1 609.95 -322.52Q610.24 -322.95 610.14 -323.45Q609.48 -327.1 608.58 -330.69ZM581.8 -381.06Q581.45 -381.44 580.94 -381.47Q580.43 -381.5 580.05 -381.15Q579.66 -380.81 579.64 -380.3Q579.61 -379.78 579.95 -379.4Q582.38 -376.71 584.63 -373.86Q584.95 -373.46 585.46 -373.4Q585.97 -373.34 586.38 -373.66Q586.78 -373.98 586.84 -374.49Q586.9 -375 586.58 -375.4Q584.28 -378.31 581.8 -381.06ZM413.76 -388.4Q413.39 -388.05 413.37 -387.53Q413.35 -387.02 413.7 -386.65Q414.05 -386.27 414.57 -386.25Q415.08 -386.23 415.45 -386.58Q418.11 -389.06 420.91 -391.36Q421.31 -391.69 421.36 -392.2Q421.41 -392.71 421.08 -393.11Q420.76 -393.5 420.24 -393.55Q419.73 -393.6 419.34 -393.28Q416.47 -390.92 413.76 -388.4ZM547.7 -407.22Q547.25 -407.45 546.76 -407.3Q546.27 -407.14 546.04 -406.68Q545.8 -406.22 545.96 -405.73Q546.12 -405.25 546.58 -405.01Q549.81 -403.37 552.93 -401.52Q553.37 -401.26 553.87 -401.39Q554.37 -401.51 554.63 -401.96Q554.89 -402.4 554.76 -402.89Q554.64 -403.39 554.19 -403.65Q551 -405.54 547.7 -407.22ZM598.28 -357.52Q598.04 -357.97 597.55 -358.12Q597.06 -358.27 596.6 -358.03Q596.15 -357.79 596 -357.3Q595.85 -356.81 596.09 -356.36Q597.79 -353.15 599.29 -349.85Q599.5 -349.38 599.99 -349.2Q600.47 -349.02 600.93 -349.23Q601.4 -349.45 601.58 -349.93Q601.76 -350.41 601.55 -350.87Q600.02 -354.25 598.28 -357.52ZM560.11 -399.92Q559.68 -400.2 559.18 -400.1Q558.67 -400.01 558.39 -399.58Q558.1 -399.16 558.2 -398.65Q558.3 -398.15 558.72 -397.86Q561.73 -395.83 564.6 -393.62Q565.01 -393.31 565.52 -393.37Q566.03 -393.44 566.34 -393.84Q566.65 -394.25 566.59 -394.76Q566.52 -395.27 566.11 -395.58Q563.18 -397.84 560.11 -399.92ZM611.2 -287.8Q611.26 -288.31 610.95 -288.71Q610.63 -289.12 610.12 -289.18Q609.61 -289.24 609.21 -288.93Q608.8 -288.61 608.74 -288.1Q608.3 -284.5 607.63 -280.93Q607.54 -280.43 607.83 -280.01Q608.12 -279.58 608.62 -279.49Q609.13 -279.39 609.55 -279.68Q609.97 -279.97 610.07 -280.48Q610.75 -284.12 611.2 -287.8Z M506.42 -170.33C506.42 -168.39 505.97 -166.56 505.17 -164.93Q502.04 -166.06 498.63 -166.5C499.52 -167.53 500.05 -168.87 500.05 -170.33C500.05 -173.58 497.42 -176.21 494.17 -176.21C490.93 -176.21 488.29 -173.58 488.29 -170.33C488.29 -168.87 488.83 -167.53 489.72 -166.5Q486.31 -166.06 483.18 -164.93C482.38 -166.56 481.92 -168.39 481.92 -170.33C481.92 -177.1 487.41 -182.58 494.17 -182.58C500.94 -182.58 506.42 -177.1 506.42 -170.33Z M482.57 -204.26C454.19 -207.59 429.5 -222.97 413.75 -245.15C413.8 -245.6 413.85 -246.05 413.91 -246.51C409.89 -254.55 409.89 -266.61 415.92 -278.67C419.94 -306.81 432 -330.93 452.09 -342.99C464.15 -351.03 480.23 -353.04 492.29 -351.03C504.35 -349.02 510.38 -340.98 514.4 -332.94C524.45 -328.92 538.52 -326.91 550.58 -324.49C557.62 -323.69 562.64 -320.88 563.04 -314.85C563.45 -308.82 560.63 -304.8 555.81 -303.99C556.21 -298.77 553.4 -294.34 547.57 -293.14C544.57 -292.54 541.58 -292.24 538.83 -291.99L538.39 -294.29Q538.37 -294.37 538.35 -294.46Q536.97 -300.56 531.13 -301.27Q525.27 -301.99 522.47 -296.4Q522.35 -296.16 522.26 -295.92L520 -289.96L517.87 -292.98Q514.86 -298.53 508.88 -297.15Q503.39 -295.88 502.16 -289.74Q502.15 -289.68 502.14 -289.62L499.1 -272.27C498.47 -271.73 497.88 -271.18 497.32 -270.63C490.28 -267.61 484.25 -262.59 482.24 -252.54C480.57 -237.45 480.29 -220.97 482.57 -204.26ZM480.13 -344.89Q479.95 -345.27 479.64 -345.55Q479.33 -345.83 478.94 -345.98Q478.54 -346.12 478.12 -346.1Q477.71 -346.08 477.33 -345.9Q476.95 -345.72 476.66 -345.41Q476.38 -345.1 476.24 -344.71Q476.1 -344.31 476.12 -343.89Q476.14 -343.47 476.31 -343.09Q482.42 -330.11 480.15 -310.19Q477.7 -288.74 466.45 -271.85Q450.33 -250.4 422.4 -256.61Q421.99 -256.7 421.58 -256.63Q421.17 -256.55 420.81 -256.33Q420.46 -256.1 420.22 -255.76Q419.98 -255.42 419.89 -255.01Q419.79 -254.6 419.87 -254.18Q419.94 -253.77 420.17 -253.42Q420.39 -253.06 420.73 -252.82Q421.08 -252.58 421.49 -252.49Q452.1 -245.68 469.86 -269.36Q469.9 -269.41 469.93 -269.46Q481.77 -287.22 484.34 -309.71Q486.75 -330.82 480.13 -344.89ZM501.34 -328.92C504.35 -325.7 509.58 -325.7 512.39 -328.92C509.58 -331.73 504.35 -331.73 501.34 -328.92Z M522.71 -282.38 527.15 -294.06C528.67 -297.12 532.49 -296.66 533.26 -293.3L536.62 -275.8Q532.29 -276.21 527.7 -275.33Z M488.84 -203.73C489.11 -211.62 489.86 -219.17 491.25 -226.09C491.25 -239.84 494.3 -250.53 501.94 -258.17L507.29 -288.72C508.05 -292.54 511.87 -293.3 513.4 -290.24L526.38 -271.91C538.6 -274.97 549.3 -270.39 555.41 -261.22C558.46 -258.17 563.04 -256.64 566.86 -254.35C569.15 -252.82 569.15 -249 566.1 -247.47C564.57 -244.42 561.52 -242.13 558.46 -241.36C556.93 -236.78 550.82 -233.73 543.19 -232.96C535.55 -230.67 530.96 -224.56 530.2 -213.87C530.14 -212.67 530.1 -211.48 530.06 -210.32C518.94 -205.97 506.84 -203.58 494.17 -203.58C492.38 -203.58 490.6 -203.63 488.84 -203.73ZM540.89 -258.93C543.19 -256.64 547.16 -256.64 549.3 -258.93C547.16 -261.22 543.19 -261.22 540.89 -258.93Z M520.42 -134.75C520.42 -120.25 508.67 -108.5 494.17 -108.5C479.68 -108.5 467.92 -120.25 467.92 -134.75C467.92 -149.25 479.68 -161 494.17 -161C508.67 -161 520.42 -149.25 520.42 -134.75Z M566.61 -352.08C565.32 -350.44 563.13 -351.54 561.24 -353.02L555.53 -357.74L540.79 -352.91L538.01 -355.09L549.85 -362.45L544.8 -366.63L538.05 -365.03L536.28 -366.41L542.11 -369.19L543.03 -368.4L541.8 -369.84L543.38 -371.86L545.07 -371.01L544.08 -371.72L545.36 -378.04L547.13 -376.66L547.21 -369.72L552.49 -365.83L556.58 -378.49C557.56 -377.68 558.54 -376.85 559.49 -376.01L558.43 -361.46L564.4 -357.07C566.29 -355.59 567.89 -353.73 566.61 -352.08ZM422.3 -338.29 425.87 -344.3Q426.1 -344.67 426.45 -344.93Q426.79 -345.19 427.22 -345.3Q427.64 -345.41 428.07 -345.35Q428.5 -345.28 428.87 -345.06Q429.25 -344.84 429.51 -344.49Q429.77 -344.14 429.87 -343.72Q429.98 -343.3 429.92 -342.87Q429.86 -342.44 429.63 -342.06L426.05 -336.05Q425.83 -335.67 425.48 -335.41Q425.13 -335.15 424.71 -335.05Q424.29 -334.94 423.86 -335Q423.43 -335.06 423.06 -335.29Q422.68 -335.51 422.42 -335.86Q422.16 -336.21 422.05 -336.63Q421.95 -337.05 422.01 -337.48Q422.07 -337.91 422.3 -338.29ZM429.6 -349.83 433.85 -355.39Q434.12 -355.74 434.49 -355.95Q434.87 -356.17 435.3 -356.23Q435.73 -356.29 436.15 -356.18Q436.57 -356.06 436.92 -355.8Q437.26 -355.53 437.48 -355.16Q437.7 -354.78 437.76 -354.35Q437.82 -353.92 437.7 -353.5Q437.59 -353.08 437.33 -352.73L433.07 -347.17Q432.81 -346.83 432.43 -346.61Q432.06 -346.39 431.63 -346.33Q431.19 -346.28 430.77 -346.39Q430.35 -346.5 430.01 -346.77Q429.66 -347.03 429.44 -347.41Q429.23 -347.78 429.17 -348.21Q429.11 -348.65 429.22 -349.07Q429.34 -349.49 429.6 -349.83ZM448.31 -369.8 453.93 -373.96Q454.28 -374.22 454.7 -374.33Q455.12 -374.43 455.55 -374.37Q455.98 -374.31 456.36 -374.08Q456.73 -373.86 456.99 -373.51Q457.25 -373.16 457.35 -372.74Q457.46 -372.31 457.4 -371.88Q457.33 -371.45 457.11 -371.08Q456.88 -370.71 456.53 -370.45L450.91 -366.28Q450.56 -366.02 450.14 -365.92Q449.72 -365.81 449.29 -365.88Q448.86 -365.94 448.48 -366.16Q448.11 -366.39 447.85 -366.74Q447.59 -367.09 447.49 -367.51Q447.38 -367.93 447.45 -368.36Q447.51 -368.79 447.73 -369.17Q447.96 -369.54 448.31 -369.8ZM438.27 -360.44 443.22 -365.39Q443.52 -365.69 443.93 -365.86Q444.33 -366.03 444.76 -366.03Q445.2 -366.03 445.6 -365.86Q446 -365.69 446.31 -365.38Q446.62 -365.08 446.78 -364.67Q446.95 -364.27 446.95 -363.84Q446.95 -363.4 446.78 -363Q446.62 -362.6 446.31 -362.29L441.36 -357.34Q441.05 -357.04 440.65 -356.87Q440.24 -356.7 439.81 -356.7Q439.37 -356.7 438.97 -356.87Q438.57 -357.04 438.26 -357.35Q437.96 -357.65 437.79 -358.06Q437.62 -358.46 437.62 -358.89Q437.62 -359.33 437.79 -359.73Q437.96 -360.13 438.27 -360.44ZM459.66 -377.55 465.87 -380.77Q466.26 -380.98 466.69 -381.01Q467.13 -381.05 467.54 -380.92Q467.96 -380.79 468.29 -380.51Q468.62 -380.23 468.82 -379.84Q469.02 -379.45 469.06 -379.02Q469.1 -378.59 468.97 -378.17Q468.84 -377.76 468.56 -377.43Q468.27 -377.09 467.89 -376.89L461.68 -373.67Q461.29 -373.47 460.86 -373.43Q460.43 -373.39 460.01 -373.52Q459.6 -373.65 459.26 -373.93Q458.93 -374.21 458.73 -374.6Q458.53 -374.99 458.49 -375.42Q458.45 -375.85 458.58 -376.27Q458.72 -376.68 459 -377.02Q459.28 -377.35 459.66 -377.55ZM472.14 -383.38 478.8 -385.52Q479.21 -385.65 479.65 -385.61Q480.08 -385.58 480.47 -385.38Q480.85 -385.18 481.14 -384.85Q481.42 -384.51 481.55 -384.1Q481.68 -383.69 481.65 -383.25Q481.61 -382.82 481.41 -382.43Q481.21 -382.04 480.88 -381.76Q480.55 -381.48 480.13 -381.35L473.47 -379.22Q473.05 -379.08 472.62 -379.12Q472.19 -379.16 471.8 -379.36Q471.41 -379.56 471.13 -379.89Q470.85 -380.22 470.72 -380.63Q470.59 -381.05 470.62 -381.48Q470.66 -381.92 470.86 -382.3Q471.06 -382.69 471.39 -382.97Q471.72 -383.25 472.14 -383.38ZM485.44 -387.01 492.38 -387.92Q492.81 -387.97 493.23 -387.86Q493.65 -387.75 494 -387.48Q494.34 -387.22 494.56 -386.84Q494.78 -386.46 494.83 -386.03Q494.89 -385.6 494.78 -385.18Q494.66 -384.76 494.4 -384.41Q494.13 -384.07 493.76 -383.85Q493.38 -383.63 492.95 -383.58L486.01 -382.67Q485.58 -382.62 485.16 -382.73Q484.74 -382.84 484.39 -383.11Q484.05 -383.37 483.83 -383.75Q483.61 -384.13 483.56 -384.56Q483.5 -384.99 483.61 -385.41Q483.73 -385.83 483.99 -386.17Q484.26 -386.52 484.63 -386.74Q485.01 -386.95 485.44 -387.01ZM499.19 -388.18 506.18 -387.79Q506.61 -387.76 507.01 -387.58Q507.4 -387.39 507.69 -387.06Q507.98 -386.74 508.12 -386.33Q508.27 -385.92 508.24 -385.48Q508.22 -385.05 508.03 -384.66Q507.84 -384.26 507.52 -383.97Q507.19 -383.68 506.78 -383.54Q506.37 -383.4 505.94 -383.42L498.95 -383.81Q498.52 -383.84 498.12 -384.02Q497.73 -384.21 497.44 -384.54Q497.15 -384.86 497.01 -385.27Q496.86 -385.68 496.89 -386.12Q496.91 -386.55 497.1 -386.94Q497.29 -387.34 497.61 -387.63Q497.94 -387.92 498.35 -388.06Q498.76 -388.2 499.19 -388.18ZM512.95 -386.74 519.72 -384.97Q520.14 -384.86 520.49 -384.6Q520.83 -384.34 521.05 -383.96Q521.27 -383.59 521.33 -383.16Q521.39 -382.73 521.28 -382.3Q521.17 -381.88 520.91 -381.54Q520.65 -381.19 520.27 -380.97Q519.9 -380.75 519.47 -380.69Q519.04 -380.63 518.61 -380.74L511.84 -382.5Q511.42 -382.61 511.08 -382.88Q510.73 -383.14 510.51 -383.51Q510.29 -383.89 510.23 -384.32Q510.17 -384.75 510.28 -385.17Q510.39 -385.59 510.65 -385.94Q510.91 -386.29 511.29 -386.51Q511.67 -386.73 512.1 -386.79Q512.53 -386.85 512.95 -386.74ZM526.16 -382.54 532.39 -379.35Q532.78 -379.15 533.06 -378.82Q533.34 -378.49 533.47 -378.07Q533.61 -377.66 533.57 -377.23Q533.54 -376.79 533.34 -376.41Q533.14 -376.02 532.81 -375.74Q532.48 -375.45 532.07 -375.32Q531.65 -375.19 531.22 -375.22Q530.78 -375.26 530.4 -375.45L524.17 -378.64Q523.78 -378.84 523.5 -379.17Q523.22 -379.5 523.08 -379.92Q522.95 -380.33 522.99 -380.77Q523.02 -381.2 523.22 -381.59Q523.42 -381.97 523.75 -382.26Q524.08 -382.54 524.49 -382.67Q524.91 -382.8 525.34 -382.77Q525.78 -382.73 526.16 -382.54Z M525.4 -44.5Q525.4 -38 522.08 -33.25Q518.75 -28.5 512.68 -25.9Q506.6 -23.3 498.35 -23.3Q492.85 -23.3 488.3 -24.45Q487.45 -24.65 486.65 -24.9V-8.35Q486.65 -7.25 487.25 -6.47Q487.85 -5.7 489.15 -5.5L493.5 -4.9Q494.75 -4.65 495.3 -4.05Q495.85 -3.45 495.85 -2.3Q495.85 -1.25 495.12 -0.62Q494.4 0 492.85 0H466.75Q465.2 0 464.45 -0.62Q463.7 -1.25 463.7 -2.3Q463.7 -4.2 465.8 -4.85L468.7 -5.5Q469.9 -5.85 470.52 -6.55Q471.15 -7.25 471.15 -8.35V-61.65Q471.15 -62.75 470.52 -63.45Q469.9 -64.15 468.7 -64.5L465.8 -65.15Q463.7 -65.8 463.7 -67.7Q463.7 -68.8 464.45 -69.4Q465.2 -70 466.75 -70H491Q501.9 -70 509.6 -66.73Q517.3 -63.45 521.35 -57.68Q525.4 -51.9 525.4 -44.5ZM753.45 -45.1V-41.15Q755.6 -43.4 758.05 -45.05Q763.2 -48.5 769.5 -48.5Q775.4 -48.5 780.05 -45.5Q784.7 -42.5 787.38 -37.18Q790.05 -31.85 790.05 -24.9Q790.05 -16.95 786.88 -11.08Q783.7 -5.2 778.25 -1.97Q772.8 1.25 766.05 1.25Q760.1 1.25 755.5 -1.55Q754.75 -2 754.05 -2.5V15.3Q754.05 16.85 754.48 17.57Q754.9 18.3 755.8 18.55L758.45 19.1Q759.45 19.4 759.9 19.93Q760.35 20.45 760.35 21.25Q760.35 22.2 759.67 22.75Q759 23.3 757.55 23.3H737.1Q735.7 23.3 735.05 22.75Q734.4 22.2 734.4 21.25Q734.4 20.5 734.85 19.98Q735.3 19.45 736.25 19.1L738.2 18.6Q739.1 18.3 739.52 17.57Q739.95 16.85 739.95 15.3V-36.7Q739.95 -37.95 739.58 -38.5Q739.2 -39.05 738.35 -39.2L735.7 -39.4Q734.8 -39.6 734.4 -40.05Q734 -40.5 734 -41.2Q734 -42.05 734.48 -42.5Q734.95 -42.95 736.3 -43.5L745.05 -46.95Q746.85 -47.7 748.02 -47.98Q749.2 -48.25 750.1 -48.25Q751.8 -48.25 752.62 -47.38Q753.45 -46.5 753.45 -45.1ZM99.2 -48.5Q106.95 -48.5 112.8 -45.35Q118.65 -42.2 121.92 -36.58Q125.2 -30.95 125.2 -23.5Q125.2 -16.45 121.82 -10.85Q118.45 -5.25 112.5 -2Q106.55 1.25 98.7 1.25Q91 1.25 85.17 -1.95Q79.35 -5.15 76.05 -10.77Q72.75 -16.4 72.75 -23.75Q72.75 -30.9 76.12 -36.47Q79.5 -42.05 85.45 -45.27Q91.4 -48.5 99.2 -48.5ZM822.35 -48.5Q830.1 -48.5 835.95 -45.35Q841.8 -42.2 845.07 -36.58Q848.35 -30.95 848.35 -23.5Q848.35 -16.45 844.97 -10.85Q841.6 -5.25 835.65 -2Q829.7 1.25 821.85 1.25Q814.15 1.25 808.33 -1.95Q802.5 -5.15 799.2 -10.77Q795.9 -16.4 795.9 -23.75Q795.9 -30.9 799.28 -36.47Q802.65 -42.05 808.6 -45.27Q814.55 -48.5 822.35 -48.5ZM67.1 -18.45Q67.05 -14.9 65.13 -11.32Q63.2 -7.75 59.58 -4.75Q55.95 -1.75 50.77 0.05Q45.6 1.85 39 1.85Q28.2 1.85 20.35 -2.8Q12.5 -7.45 8.23 -15.67Q3.95 -23.9 3.95 -34.55Q3.95 -42.65 6.48 -49.4Q9 -56.15 13.57 -61.17Q18.15 -66.2 24.3 -68.97Q30.45 -71.75 37.7 -71.75Q42.7 -71.75 45.85 -70.78Q49 -69.8 50.8 -68.8Q52.6 -67.8 53.65 -67.8Q54.9 -67.8 55.55 -68.68Q56.2 -69.55 56.9 -70.4Q57.6 -71.25 58.85 -71.25Q59.75 -71.25 60.35 -70.67Q60.95 -70.1 61.35 -68.75L66.6 -51.5Q66.95 -50.35 66.38 -49.45Q65.8 -48.55 64.65 -48.3Q63.45 -48.05 62.5 -48.52Q61.55 -49 61 -50.2Q58.3 -56.2 55.02 -59.73Q51.75 -63.25 47.95 -64.8Q44.15 -66.35 39.75 -66.35Q35.3 -66.35 31.6 -64.32Q27.9 -62.3 25.2 -58.55Q22.5 -54.8 21.02 -49.55Q19.55 -44.3 19.55 -37.75Q19.55 -27.7 22.67 -20.73Q25.8 -13.75 31.2 -10.15Q36.6 -6.55 43.55 -6.55Q50.2 -6.55 55.12 -9.72Q60.05 -12.9 62.8 -18.7Q63.35 -19.85 64.05 -20.23Q64.75 -20.6 65.6 -20.45Q66.35 -20.35 66.72 -19.82Q67.1 -19.3 67.1 -18.45ZM680.5 -10.45Q680.5 -16.7 686.08 -20.55Q691.65 -24.4 701.65 -24.4Q704.9 -24.4 707.55 -23.85Q708.55 -23.65 709.5 -23.35V-37.45Q709.5 -40.95 707.73 -42.88Q705.95 -44.8 702.7 -44.8Q699.75 -44.8 698.15 -43.55Q696.55 -42.3 696.55 -40.45V-36.05Q696.55 -33.05 694.55 -31.42Q692.55 -29.8 688.9 -29.8Q685.8 -29.8 684.2 -31.27Q682.6 -32.75 682.6 -35.3Q682.6 -38.45 685.2 -41.48Q687.8 -44.5 692.85 -46.48Q697.9 -48.45 705.3 -48.45Q714.5 -48.45 718.98 -44.73Q723.45 -41 723.45 -34.65V-8.65Q723.45 -7.25 724.02 -6.55Q724.6 -5.85 725.65 -5.85Q726.75 -5.85 727.3 -6.38Q727.85 -6.9 728.25 -7.45Q728.5 -7.8 728.8 -8.03Q729.1 -8.25 729.55 -8.25Q730.15 -8.25 730.45 -7.8Q730.75 -7.35 730.75 -6.6Q730.75 -4.9 729.58 -3.1Q728.4 -1.3 726.08 -0.02Q723.75 1.25 720.25 1.25Q715.8 1.25 713.15 -0.8Q711.1 -2.3 710.6 -4.75Q708.3 -2.35 705.05 -0.9Q700.4 1.25 695.2 1.25Q688.65 1.25 684.58 -2Q680.5 -5.25 680.5 -10.45ZM530.45 -10.45Q530.45 -16.7 536.02 -20.55Q541.6 -24.4 551.6 -24.4Q554.85 -24.4 557.5 -23.85Q558.5 -23.65 559.45 -23.35V-37.45Q559.45 -40.95 557.68 -42.88Q555.9 -44.8 552.65 -44.8Q549.7 -44.8 548.1 -43.55Q546.5 -42.3 546.5 -40.45V-36.05Q546.5 -33.05 544.5 -31.42Q542.5 -29.8 538.85 -29.8Q535.75 -29.8 534.15 -31.27Q532.55 -32.75 532.55 -35.3Q532.55 -38.45 535.15 -41.48Q537.75 -44.5 542.8 -46.48Q547.85 -48.45 555.25 -48.45Q564.45 -48.45 568.93 -44.73Q573.4 -41 573.4 -34.65V-8.65Q573.4 -7.25 573.98 -6.55Q574.55 -5.85 575.6 -5.85Q576.7 -5.85 577.25 -6.38Q577.8 -6.9 578.2 -7.45Q578.45 -7.8 578.75 -8.03Q579.05 -8.25 579.5 -8.25Q580.1 -8.25 580.4 -7.8Q580.7 -7.35 580.7 -6.6Q580.7 -4.9 579.52 -3.1Q578.35 -1.3 576.02 -0.02Q573.7 1.25 570.2 1.25Q565.75 1.25 563.1 -0.8Q561.05 -2.3 560.55 -4.75Q558.25 -2.35 555 -0.9Q550.35 1.25 545.15 1.25Q538.6 1.25 534.52 -2Q530.45 -5.25 530.45 -10.45ZM291.8 -10.45Q291.8 -16.7 297.38 -20.55Q302.95 -24.4 312.95 -24.4Q316.2 -24.4 318.85 -23.85Q319.85 -23.65 320.8 -23.35V-37.45Q320.8 -40.95 319.02 -42.88Q317.25 -44.8 314 -44.8Q311.05 -44.8 309.45 -43.55Q307.85 -42.3 307.85 -40.45V-36.05Q307.85 -33.05 305.85 -31.42Q303.85 -29.8 300.2 -29.8Q297.1 -29.8 295.5 -31.27Q293.9 -32.75 293.9 -35.3Q293.9 -38.45 296.5 -41.48Q299.1 -44.5 304.15 -46.48Q309.2 -48.45 316.6 -48.45Q325.8 -48.45 330.27 -44.73Q334.75 -41 334.75 -34.65V-8.65Q334.75 -7.25 335.32 -6.55Q335.9 -5.85 336.95 -5.85Q338.05 -5.85 338.6 -6.38Q339.15 -6.9 339.55 -7.45Q339.8 -7.8 340.1 -8.03Q340.4 -8.25 340.85 -8.25Q341.45 -8.25 341.75 -7.8Q342.05 -7.35 342.05 -6.6Q342.05 -4.9 340.88 -3.1Q339.7 -1.3 337.38 -0.02Q335.05 1.25 331.55 1.25Q327.1 1.25 324.45 -0.8Q322.4 -2.3 321.9 -4.75Q319.6 -2.35 316.35 -0.9Q311.7 1.25 306.5 1.25Q299.95 1.25 295.88 -2Q291.8 -5.25 291.8 -10.45ZM984.85 -29.55Q984.85 -26.9 983.35 -25.47Q981.85 -24.05 978.95 -24.05H951.5Q952.2 -17.1 955.85 -13.25Q960.35 -8.4 967.9 -8.4Q972.3 -8.4 975.62 -10.15Q978.95 -11.9 980.8 -15.15Q981.7 -16.15 982.23 -16.5Q982.75 -16.85 983.3 -16.85Q984.1 -16.85 984.45 -16.12Q984.8 -15.4 984.8 -14.4Q984.6 -10.2 981.8 -6.62Q979 -3.05 974.25 -0.9Q969.5 1.25 963.35 1.25Q956.1 1.25 950.5 -1.72Q944.9 -4.7 941.73 -10.07Q938.55 -15.45 938.55 -22.65Q938.55 -30.2 941.57 -36.05Q944.6 -41.9 950.25 -45.2Q955.9 -48.5 963.75 -48.5Q970.45 -48.5 975.18 -46.08Q979.9 -43.65 982.38 -39.38Q984.85 -35.1 984.85 -29.55ZM208.05 -29.55Q208.05 -26.9 206.55 -25.47Q205.05 -24.05 202.15 -24.05H174.7Q175.4 -17.1 179.05 -13.25Q183.55 -8.4 191.1 -8.4Q195.5 -8.4 198.82 -10.15Q202.15 -11.9 204 -15.15Q204.9 -16.15 205.42 -16.5Q205.95 -16.85 206.5 -16.85Q207.3 -16.85 207.65 -16.12Q208 -15.4 208 -14.4Q207.8 -10.2 205 -6.62Q202.2 -3.05 197.45 -0.9Q192.7 1.25 186.55 1.25Q179.3 1.25 173.7 -1.72Q168.1 -4.7 164.93 -10.07Q161.75 -15.45 161.75 -22.65Q161.75 -30.2 164.78 -36.05Q167.8 -41.9 173.45 -45.2Q179.1 -48.5 186.95 -48.5Q193.65 -48.5 198.38 -46.08Q203.1 -43.65 205.58 -39.38Q208.05 -35.1 208.05 -29.55ZM652.1 -44Q648.65 -44 646.73 -42.27Q644.8 -40.55 644.8 -37.9Q644.8 -36.25 645.52 -34.92Q646.25 -33.6 648.3 -32.5Q650.35 -31.4 654.3 -30.45Q662 -28.85 666.2 -26.45Q670.4 -24.05 672.05 -20.92Q673.7 -17.8 673.7 -13.95Q673.7 -7 668.8 -2.88Q663.9 1.25 654.55 1.25Q651.25 1.25 649.15 0.68Q647.05 0.1 645.7 -0.47Q644.35 -1.05 643.3 -1.05Q642.25 -1.05 641.58 -0.47Q640.9 0.1 640.3 0.68Q639.7 1.25 638.7 1.25Q637.8 1.25 637.35 0.75Q636.9 0.25 636.5 -1.1L633.2 -11.15Q632.65 -12.9 632.88 -14Q633.1 -15.1 634.2 -15.55Q635.35 -15.95 636.2 -15.53Q637.05 -15.1 637.8 -13.95Q640.05 -10.05 642.6 -7.73Q645.15 -5.4 647.98 -4.35Q650.8 -3.3 653.75 -3.3Q658.05 -3.3 660.17 -5.05Q662.3 -6.8 662.3 -9.7Q662.3 -11.45 661.4 -12.88Q660.5 -14.3 658.05 -15.47Q655.6 -16.65 650.95 -17.7Q644.5 -19.1 640.67 -21.32Q636.85 -23.55 635.17 -26.7Q633.5 -29.85 633.5 -34Q633.5 -38.35 635.75 -41.6Q638 -44.85 642 -46.67Q646 -48.5 651.25 -48.5Q654.65 -48.5 656.7 -47.9Q658.75 -47.3 660.08 -46.67Q661.4 -46.05 662.5 -46.05Q663.7 -46.05 664.4 -46.67Q665.1 -47.3 665.75 -47.9Q666.4 -48.5 667.35 -48.5Q668.1 -48.5 668.62 -47.98Q669.15 -47.45 669.4 -46.15L671.85 -36.6Q672.2 -34.75 672.02 -33.7Q671.85 -32.65 670.7 -32.2Q669.6 -31.75 668.75 -32.3Q667.9 -32.85 667.05 -34.25Q663.95 -39.55 660.02 -41.77Q656.1 -44 652.1 -44ZM604.5 -44Q601.05 -44 599.12 -42.27Q597.2 -40.55 597.2 -37.9Q597.2 -36.25 597.93 -34.92Q598.65 -33.6 600.7 -32.5Q602.75 -31.4 606.7 -30.45Q614.4 -28.85 618.6 -26.45Q622.8 -24.05 624.45 -20.92Q626.1 -17.8 626.1 -13.95Q626.1 -7 621.2 -2.88Q616.3 1.25 606.95 1.25Q603.65 1.25 601.55 0.68Q599.45 0.1 598.1 -0.47Q596.75 -1.05 595.7 -1.05Q594.65 -1.05 593.98 -0.47Q593.3 0.1 592.7 0.68Q592.1 1.25 591.1 1.25Q590.2 1.25 589.75 0.75Q589.3 0.25 588.9 -1.1L585.6 -11.15Q585.05 -12.9 585.27 -14Q585.5 -15.1 586.6 -15.55Q587.75 -15.95 588.6 -15.53Q589.45 -15.1 590.2 -13.95Q592.45 -10.05 595 -7.73Q597.55 -5.4 600.38 -4.35Q603.2 -3.3 606.15 -3.3Q610.45 -3.3 612.58 -5.05Q614.7 -6.8 614.7 -9.7Q614.7 -11.45 613.8 -12.88Q612.9 -14.3 610.45 -15.47Q608 -16.65 603.35 -17.7Q596.9 -19.1 593.08 -21.32Q589.25 -23.55 587.58 -26.7Q585.9 -29.85 585.9 -34Q585.9 -38.35 588.15 -41.6Q590.4 -44.85 594.4 -46.67Q598.4 -48.5 603.65 -48.5Q607.05 -48.5 609.1 -47.9Q611.15 -47.3 612.48 -46.67Q613.8 -46.05 614.9 -46.05Q616.1 -46.05 616.8 -46.67Q617.5 -47.3 618.15 -47.9Q618.8 -48.5 619.75 -48.5Q620.5 -48.5 621.02 -47.98Q621.55 -47.45 621.8 -46.15L624.25 -36.6Q624.6 -34.75 624.42 -33.7Q624.25 -32.65 623.1 -32.2Q622 -31.75 621.15 -32.3Q620.3 -32.85 619.45 -34.25Q616.35 -39.55 612.42 -41.77Q608.5 -44 604.5 -44ZM151.15 -71.15V-8Q151.15 -6.45 151.57 -5.72Q152 -5 152.9 -4.7L154.8 -4.2Q155.75 -3.9 156.2 -3.38Q156.65 -2.85 156.65 -2.05Q156.65 -1.1 156 -0.55Q155.35 0 153.9 0H134.2Q132.8 0 132.15 -0.55Q131.5 -1.1 131.5 -2.05Q131.5 -2.8 131.95 -3.32Q132.4 -3.85 133.35 -4.2L135.3 -4.7Q136.2 -5.05 136.62 -5.75Q137.05 -6.45 137.05 -8V-62.75Q137.05 -64 136.68 -64.55Q136.3 -65.1 135.45 -65.25L132.8 -65.45Q131.9 -65.7 131.5 -66.15Q131.1 -66.6 131.1 -67.3Q131.1 -68.1 131.6 -68.6Q132.1 -69.1 133.4 -69.6L142.7 -73Q144.7 -73.75 145.85 -74.05Q147 -74.35 147.85 -74.35Q149.5 -74.35 150.32 -73.47Q151.15 -72.6 151.15 -71.15ZM873.45 -45.05 874 -37.2Q874.25 -37.95 874.55 -38.65Q876.6 -43.55 879.95 -46.02Q883.3 -48.5 887.15 -48.5Q891.9 -48.5 894.5 -45.8Q897.1 -43.1 897.1 -38.05Q897.1 -33.55 895.25 -31.35Q893.4 -29.15 890.45 -29.15Q887.45 -29.15 885.9 -30.75Q884.35 -32.35 884.35 -35.2V-37Q884.3 -38.6 883.6 -39.38Q882.9 -40.15 881.3 -40.15Q879.55 -40.15 877.92 -38.7Q876.3 -37.25 875.27 -34.3Q874.25 -31.35 874.25 -26.75V-8.05Q874.25 -6.6 874.83 -5.92Q875.4 -5.25 876.9 -5L881.2 -4.35Q882.35 -4.15 882.92 -3.6Q883.5 -3.05 883.5 -2.1Q883.5 -1.1 882.77 -0.55Q882.05 0 880.7 0H857.35Q855.95 0 855.3 -0.55Q854.65 -1.1 854.65 -2.05Q854.65 -2.8 855.1 -3.32Q855.55 -3.85 856.5 -4.2L858.45 -4.7Q859.35 -5 859.77 -5.72Q860.2 -6.45 860.2 -8V-36.55Q860.2 -37.85 859.83 -38.4Q859.45 -38.95 858.6 -39.1L855.95 -39.3Q855.05 -39.5 854.65 -39.95Q854.25 -40.4 854.25 -41.1Q854.25 -41.95 854.75 -42.45Q855.25 -42.95 856.55 -43.45L865.65 -46.75Q868.1 -47.7 869.25 -47.98Q870.4 -48.25 871.05 -48.25Q872.15 -48.25 872.7 -47.52Q873.25 -46.8 873.45 -45.05ZM263.6 -45.05 264.15 -37.2Q264.4 -37.95 264.7 -38.65Q266.75 -43.55 270.1 -46.02Q273.45 -48.5 277.3 -48.5Q282.05 -48.5 284.65 -45.8Q287.25 -43.1 287.25 -38.05Q287.25 -33.55 285.4 -31.35Q283.55 -29.15 280.6 -29.15Q277.6 -29.15 276.05 -30.75Q274.5 -32.35 274.5 -35.2V-37Q274.45 -38.6 273.75 -39.38Q273.05 -40.15 271.45 -40.15Q269.7 -40.15 268.08 -38.7Q266.45 -37.25 265.43 -34.3Q264.4 -31.35 264.4 -26.75V-8.05Q264.4 -6.6 264.97 -5.92Q265.55 -5.25 267.05 -5L271.35 -4.35Q272.5 -4.15 273.07 -3.6Q273.65 -3.05 273.65 -2.1Q273.65 -1.1 272.93 -0.55Q272.2 0 270.85 0H247.5Q246.1 0 245.45 -0.55Q244.8 -1.1 244.8 -2.05Q244.8 -2.8 245.25 -3.32Q245.7 -3.85 246.65 -4.2L248.6 -4.7Q249.5 -5 249.93 -5.72Q250.35 -6.45 250.35 -8V-36.55Q250.35 -37.85 249.98 -38.4Q249.6 -38.95 248.75 -39.1L246.1 -39.3Q245.2 -39.5 244.8 -39.95Q244.4 -40.4 244.4 -41.1Q244.4 -41.95 244.9 -42.45Q245.4 -42.95 246.7 -43.45L255.8 -46.75Q258.25 -47.7 259.4 -47.98Q260.55 -48.25 261.2 -48.25Q262.3 -48.25 262.85 -47.52Q263.4 -46.8 263.6 -45.05ZM903.65 -42.45 901.35 -43.15Q900.15 -43.55 899.65 -44.07Q899.15 -44.6 899.15 -45.3Q899.15 -46.3 899.83 -46.82Q900.5 -47.35 901.65 -47.35H904.7Q905.9 -47.35 906.7 -47.8Q907.5 -48.25 908.35 -49.4L913.8 -57.05Q914.85 -58.35 915.8 -58.95Q916.75 -59.55 917.7 -59.55Q918.75 -59.55 919.35 -58.9Q919.95 -58.25 919.95 -57V-47.35H930.95Q932.1 -47.35 932.77 -46.88Q933.45 -46.4 933.45 -45.5Q933.45 -44.2 932.15 -43.3Q930.85 -42.4 927.95 -42.4H919.95V-14.25Q919.95 -10.75 921.33 -8.9Q922.7 -7.05 925.15 -7.05Q927 -7.05 928.02 -7.78Q929.05 -8.5 929.65 -9.45Q930.25 -10.4 930.83 -11.12Q931.4 -11.85 932.3 -11.9Q933.05 -11.9 933.48 -11.4Q933.9 -10.9 933.9 -9.75Q933.85 -6.9 932.02 -4.45Q930.2 -2 926.95 -0.48Q923.7 1.05 919.55 1.05Q913.15 1.05 909.53 -2.18Q905.9 -5.4 905.9 -11.9V-39.5Q905.9 -40.8 905.38 -41.42Q904.85 -42.05 903.65 -42.45ZM825.9 -4Q829.3 -4.5 831.38 -7.12Q833.45 -9.75 834.02 -14.35Q834.6 -18.95 833.4 -25.4Q832.25 -31.85 830.05 -36.03Q827.85 -40.2 824.85 -42.05Q821.85 -43.9 818.35 -43.3Q814.9 -42.75 812.83 -40.12Q810.75 -37.5 810.23 -32.93Q809.7 -28.35 810.85 -21.85Q812 -15.45 814.2 -11.27Q816.4 -7.1 819.4 -5.25Q822.4 -3.4 825.9 -4ZM102.75 -4Q106.15 -4.5 108.23 -7.12Q110.3 -9.75 110.88 -14.35Q111.45 -18.95 110.25 -25.4Q109.1 -31.85 106.9 -36.03Q104.7 -40.2 101.7 -42.05Q98.7 -43.9 95.2 -43.3Q91.75 -42.75 89.67 -40.12Q87.6 -37.5 87.08 -32.93Q86.55 -28.35 87.7 -21.85Q88.85 -15.45 91.05 -11.27Q93.25 -7.1 96.25 -5.25Q99.25 -3.4 102.75 -4ZM233.95 -45.1V-8Q233.95 -6.45 234.38 -5.72Q234.8 -5 235.7 -4.7L237.6 -4.2Q238.55 -3.9 239 -3.38Q239.45 -2.85 239.45 -2.05Q239.45 -1.1 238.8 -0.55Q238.15 0 236.7 0H217Q215.6 0 214.95 -0.55Q214.3 -1.1 214.3 -2.05Q214.3 -2.8 214.75 -3.32Q215.2 -3.85 216.15 -4.2L218.1 -4.7Q219 -5.05 219.43 -5.75Q219.85 -6.45 219.85 -8V-36.65Q219.85 -37.95 219.48 -38.5Q219.1 -39.05 218.25 -39.2L215.6 -39.4Q214.7 -39.6 214.3 -40.05Q213.9 -40.5 213.9 -41.2Q213.9 -42.05 214.38 -42.55Q214.85 -43.05 216.2 -43.55L225.5 -46.95Q227.45 -47.65 228.62 -47.95Q229.8 -48.25 230.6 -48.25Q232.3 -48.25 233.12 -47.38Q233.95 -46.5 233.95 -45.1ZM486.65 -29.5Q488 -29.1 489.4 -28.85Q491.75 -28.4 494.3 -28.4Q498.9 -28.4 502.5 -30.3Q506.1 -32.2 508.15 -35.9Q510.2 -39.6 510.2 -44.9Q510.2 -51.05 507.78 -55.55Q505.35 -60.05 500.95 -62.55Q496.55 -65.05 490.6 -65.05H486.65ZM754.05 -36.6V-8.85Q755.4 -7.4 756.9 -6.45Q759.95 -4.45 763.5 -4.45Q766.95 -4.45 769.62 -6.45Q772.3 -8.45 773.85 -12.67Q775.4 -16.9 775.4 -23.4Q775.4 -29.5 773.9 -33.5Q772.4 -37.5 769.78 -39.48Q767.15 -41.45 763.8 -41.45Q760.2 -41.45 757.05 -39.3Q755.5 -38.2 754.05 -36.6ZM191.4 -27.85Q193.95 -27.85 193.95 -30.15Q193.95 -36.75 191.55 -40.17Q189.15 -43.6 185.1 -43.6Q182 -43.6 179.6 -41.7Q177.2 -39.8 175.85 -36.3Q174.5 -32.8 174.5 -27.85ZM968.2 -27.85Q970.75 -27.85 970.75 -30.15Q970.75 -36.75 968.35 -40.17Q965.95 -43.6 961.9 -43.6Q958.8 -43.6 956.4 -41.7Q954 -39.8 952.65 -36.3Q951.3 -32.8 951.3 -27.85ZM225.8 -55.9Q221.8 -55.9 219.38 -57.98Q216.95 -60.05 216.95 -63.4Q216.95 -66.75 219.38 -68.78Q221.8 -70.8 225.8 -70.8Q229.85 -70.8 232.28 -68.78Q234.7 -66.75 234.7 -63.4Q234.7 -60.05 232.28 -57.98Q229.85 -55.9 225.8 -55.9ZM709.5 -19.75Q708.5 -20.15 707.5 -20.4Q705.7 -20.85 703.65 -20.85Q699.5 -20.85 697.17 -18.73Q694.85 -16.6 694.85 -12.85Q694.85 -9.1 696.82 -7.1Q698.8 -5.1 701.95 -5.1Q704.65 -5.1 707.15 -6.35Q708.4 -6.95 709.5 -7.85ZM559.45 -19.75Q558.45 -20.15 557.45 -20.4Q555.65 -20.85 553.6 -20.85Q549.45 -20.85 547.12 -18.73Q544.8 -16.6 544.8 -12.85Q544.8 -9.1 546.77 -7.1Q548.75 -5.1 551.9 -5.1Q554.6 -5.1 557.1 -6.35Q558.35 -6.95 559.45 -7.85ZM320.8 -19.75Q319.8 -20.15 318.8 -20.4Q317 -20.85 314.95 -20.85Q310.8 -20.85 308.47 -18.73Q306.15 -16.6 306.15 -12.85Q306.15 -9.1 308.12 -7.1Q310.1 -5.1 313.25 -5.1Q315.95 -5.1 318.45 -6.35Q319.7 -6.95 320.8 -7.85ZM367.5 -21.2V-11.56Q366.8 -13.87 366.8 -16.4Q366.8 -18.9 367.5 -21.2Z M384.95 -35.1Q380.15 -37.2 377.5 -41Q374.4 -45.4 374.4 -51.4Q374.4 -57 377.25 -61.47Q380.1 -65.95 385.5 -68.57Q390.9 -71.2 398.55 -71.2Q405 -71.2 409.77 -69.17Q414.55 -67.15 417.2 -63.58Q419.85 -60 419.85 -55.35Q419.85 -50.65 417.53 -47.03Q415.2 -43.4 410.2 -41.05Q407.05 -39.55 402.7 -38.55Q404.5 -37.5 406.2 -36Q408 -34.3 410.1 -31.75L418.75 -20.9L421.45 -25.8Q422.7 -27.6 423.05 -29.05Q423.4 -30.5 422.85 -31.52Q422.3 -32.55 420.9 -33.05L418.35 -33.75Q417.35 -34.1 416.95 -34.65Q416.55 -35.2 416.55 -35.85Q416.55 -36.85 417.38 -37.57Q418.2 -38.3 419.45 -38.3H433.8Q436.85 -38.3 436.85 -35.95Q436.85 -35.05 436.38 -34.4Q435.9 -33.75 434.6 -33.1Q432.45 -32.25 430.8 -30.75Q429.15 -29.25 426.75 -26L421.4 -17.6L429.05 -8Q430.3 -6.5 431.52 -5.83Q432.75 -5.15 434.35 -5Q435.7 -4.85 436.43 -4.32Q437.15 -3.8 437.15 -2.65Q437.15 -1.4 436.32 -0.8Q435.5 -0.2 433.9 -0.2H420.7Q418.7 -0.2 417.23 -0.78Q415.75 -1.35 414.5 -2.9L409.7 -8.9Q406.35 -4.6 402.1 -2Q396.7 1.3 388.65 1.3Q381.6 1.3 376.73 -1.12Q371.85 -3.55 369.33 -7.58Q368.13 -9.48 367.5 -11.56V-21.2Q368.19 -23.47 369.55 -25.55Q372.3 -29.75 377.6 -32.55Q380.8 -34.25 384.95 -35.1ZM407.15 -12.05 395.25 -26.8Q392.2 -30.55 390.25 -32.25Q389.45 -32.9 388.75 -33.35Q387.2 -32.75 386 -31.6Q383.9 -29.6 382.75 -26.68Q381.6 -23.75 381.6 -20.6Q381.6 -16.1 383.12 -12.73Q384.65 -9.35 387.52 -7.5Q390.4 -5.65 394.3 -5.65Q398.7 -5.65 402.25 -7.65Q405 -9.15 407.15 -12.05ZM397.25 -67.3Q393.3 -67.3 391.12 -64Q388.95 -60.7 388.95 -55.65Q388.95 -50.25 391.12 -46.23Q393.3 -42.2 397.95 -40.65Q398.4 -40.5 398.8 -40.35Q401.8 -41.65 403.4 -44.75Q405.55 -48.85 405.55 -54.95Q405.55 -60.75 403.25 -64.03Q400.95 -67.3 397.25 -67.3Z M425.79 59.3Q424.09 59.3 422.63 58.69Q421.17 58.08 420.07 56.99Q418.96 55.9 418.34 54.43Q417.72 52.96 417.72 51.21Q417.72 49.47 418.34 47.99Q418.96 46.51 420.06 45.43Q421.15 44.35 422.62 43.75Q424.09 43.15 425.79 43.15Q427.51 43.15 428.97 43.75Q430.43 44.35 431.53 45.44Q432.63 46.53 433.24 48Q433.85 49.47 433.85 51.21Q433.85 52.96 433.23 54.43Q432.61 55.9 431.52 56.99Q430.43 58.08 428.96 58.69Q427.49 59.3 425.79 59.3ZM314.97 59.3Q313.27 59.3 311.81 58.69Q310.35 58.08 309.25 56.99Q308.15 55.9 307.53 54.43Q306.91 52.96 306.91 51.21Q306.91 49.47 307.53 47.99Q308.15 46.51 309.24 45.43Q310.33 44.35 311.8 43.75Q313.27 43.15 314.97 43.15Q316.69 43.15 318.15 43.75Q319.61 44.35 320.71 45.44Q321.82 46.53 322.43 48Q323.04 49.47 323.04 51.21Q323.04 52.96 322.42 54.43Q321.8 55.9 320.7 56.99Q319.61 58.08 318.14 58.69Q316.67 59.3 314.97 59.3ZM621.19 59.04V43.4H626.88Q628.46 43.4 629.66 43.98Q630.85 44.56 631.54 45.66Q632.22 46.76 632.22 48.29Q632.22 49.91 631.41 51.07Q630.6 52.22 629.24 52.74L632.85 59.04H630.03L626.72 53.17H623.67V59.04ZM441.24 59.04V43.4H446.94Q448.51 43.4 449.71 43.98Q450.9 44.56 451.59 45.66Q452.27 46.76 452.27 48.29Q452.27 49.91 451.46 51.07Q450.65 52.22 449.29 52.74L452.9 59.04H450.09L446.77 53.17H443.72V59.04ZM514.62 59.04V43.4H516.93L522.22 50.75L527.43 43.4H529.74V59.04H527.28V47.83L522.3 54.63H522.05L517.1 47.71V59.04ZM545.89 59.04V43.4H551.58Q553.15 43.4 554.36 43.98Q555.57 44.56 556.24 45.66Q556.91 46.76 556.91 48.29Q556.91 49.81 556.23 50.9Q555.55 51.99 554.35 52.58Q553.15 53.17 551.58 53.17H548.37V59.04ZM638.16 59.04 643.66 43.4H646.73L652.23 59.04H649.59L648.39 55.54H642.03L640.81 59.04ZM468.54 59.04 474.05 43.4H477.11L482.61 59.04H479.97L478.77 55.54H472.41L471.19 59.04ZM330.43 59.04V43.4H332.42L340.26 54.22V43.4H342.71V59.04H340.72L332.91 48.1V59.04ZM314.97 57.03Q316.19 57.03 317.21 56.59Q318.23 56.15 318.98 55.36Q319.74 54.57 320.16 53.51Q320.58 52.45 320.58 51.21Q320.58 49.97 320.16 48.92Q319.74 47.87 318.98 47.08Q318.23 46.28 317.21 45.84Q316.19 45.4 314.97 45.4Q313.75 45.4 312.74 45.84Q311.72 46.28 310.96 47.08Q310.2 47.87 309.79 48.92Q309.39 49.97 309.39 51.21Q309.39 52.45 309.79 53.51Q310.2 54.57 310.96 55.36Q311.72 56.15 312.75 56.59Q313.77 57.03 314.97 57.03ZM425.79 57.03Q427.01 57.03 428.02 56.59Q429.04 56.15 429.8 55.36Q430.56 54.57 430.98 53.51Q431.4 52.45 431.4 51.21Q431.4 49.97 430.98 48.92Q430.56 47.87 429.8 47.08Q429.04 46.28 428.02 45.84Q427.01 45.4 425.79 45.4Q424.57 45.4 423.55 45.84Q422.53 46.28 421.78 47.08Q421.02 47.87 420.61 48.92Q420.2 49.97 420.2 51.21Q420.2 52.45 420.61 53.51Q421.02 54.57 421.78 55.36Q422.53 56.15 423.56 56.59Q424.59 57.03 425.79 57.03ZM564.07 59.04V43.4H574.38V45.6H566.55V50.1H573.96V52.3H566.55V56.84H574.38V59.04ZM676.59 59.04V43.4H686.9V45.6H679.07V50.1H686.48V52.3H679.07V56.84H686.9V59.04ZM497.38 59.04V43.4H507.69V45.6H499.86V50.1H507.27V52.3H499.86V56.84H507.69V59.04ZM374.63 59.3Q372.89 59.3 371.54 58.56Q370.18 57.83 369.41 56.55Q368.65 55.26 368.65 53.63V43.4H371.13V53.52Q371.13 54.55 371.58 55.35Q372.03 56.15 372.82 56.59Q373.6 57.03 374.63 57.03Q375.68 57.03 376.47 56.59Q377.26 56.15 377.71 55.35Q378.16 54.55 378.16 53.52V43.4H380.62V53.63Q380.62 55.26 379.86 56.55Q379.11 57.83 377.75 58.56Q376.4 59.3 374.63 59.3ZM356.05 59.3Q354.58 59.3 353.32 58.74Q352.06 58.18 351.18 57.22Q350.29 56.25 349.87 54.99L351.97 54.11Q352.54 55.56 353.63 56.34Q354.72 57.11 356.15 57.11Q356.99 57.11 357.62 56.85Q358.25 56.59 358.6 56.11Q358.95 55.62 358.95 54.99Q358.95 54.13 358.46 53.63Q357.98 53.12 357.03 52.83L354.09 51.9Q352.33 51.36 351.41 50.24Q350.48 49.11 350.48 47.6Q350.48 46.28 351.13 45.28Q351.78 44.28 352.93 43.72Q354.07 43.15 355.54 43.15Q356.95 43.15 358.11 43.64Q359.26 44.13 360.09 45Q360.92 45.86 361.3 46.99L359.24 47.89Q358.78 46.65 357.8 45.98Q356.82 45.31 355.54 45.31Q354.77 45.31 354.18 45.57Q353.59 45.84 353.27 46.33Q352.94 46.82 352.94 47.47Q352.94 48.23 353.42 48.82Q353.91 49.41 354.89 49.7L357.62 50.56Q359.49 51.13 360.44 52.19Q361.38 53.25 361.38 54.82Q361.38 56.13 360.7 57.13Q360.02 58.14 358.82 58.72Q357.62 59.3 356.05 59.3ZM293.72 59.3Q292.06 59.3 290.64 58.69Q289.23 58.08 288.19 57Q287.15 55.92 286.56 54.45Q285.97 52.98 285.97 51.21Q285.97 49.47 286.55 47.99Q287.13 46.51 288.18 45.43Q289.23 44.35 290.63 43.75Q292.04 43.15 293.72 43.15Q295.38 43.15 296.69 43.72Q298 44.28 298.91 45.2Q299.81 46.11 300.21 47.18L297.98 48.23Q297.48 46.97 296.38 46.18Q295.27 45.4 293.72 45.4Q292.17 45.4 290.97 46.13Q289.77 46.87 289.11 48.17Q288.45 49.47 288.45 51.21Q288.45 52.96 289.11 54.27Q289.77 55.58 290.97 56.3Q292.17 57.03 293.72 57.03Q295.27 57.03 296.38 56.25Q297.48 55.47 297.98 54.22L300.21 55.26Q299.81 56.31 298.91 57.24Q298 58.16 296.69 58.73Q295.38 59.3 293.72 59.3ZM661.81 59.04 656.26 43.4H658.93L663.19 55.98L667.46 43.4H670.12L664.58 59.04ZM584.09 59.04V45.6H579.93V43.4H590.64V45.6H586.54V59.04ZM405.8 59.04V45.6H401.64V43.4H412.35V45.6H408.25V59.04ZM608.17 59.04V45.6H604.02V43.4H614.73V45.6H610.63V59.04ZM388.35 59.04V43.4H390.82V56.84H397.59V59.04ZM693.83 59.04V43.4H696.31V56.84H703.07V59.04ZM459.6 59.04V43.4H462.08V59.04ZM548.37 50.96H551.64Q552.48 50.96 553.11 50.62Q553.74 50.29 554.1 49.69Q554.46 49.09 554.46 48.27Q554.46 47.45 554.1 46.85Q553.74 46.26 553.11 45.93Q552.48 45.6 551.64 45.6H548.37ZM443.72 50.96H446.98Q447.84 50.96 448.47 50.62Q449.1 50.29 449.45 49.69Q449.79 49.09 449.79 48.27Q449.79 47.45 449.45 46.85Q449.1 46.26 448.47 45.93Q447.84 45.6 446.98 45.6H443.72ZM623.67 50.96H626.93Q627.79 50.96 628.42 50.62Q629.05 50.29 629.39 49.69Q629.74 49.09 629.74 48.27Q629.74 47.45 629.39 46.85Q629.05 46.26 628.42 45.93Q627.79 45.6 626.93 45.6H623.67ZM473.12 53.33H478.02L475.58 46.15ZM642.74 53.33H647.63L645.2 46.15Z"/></svg>