<svg xmlns="http://www.w3.org/2000/svg" viewBox="-10.80 -93.70 574.20 473.24" role="img" aria-label="Coleira &amp; Passaporte"><title>Coleira &amp; Passaporte</title><path fill="#1B2B44" d="M210.4 1.2Q202.4 1.2 195.85 -2.5Q189.3 -6.2 185.45 -12.6Q181.6 -19 181.6 -27.2Q181.6 -35.4 185.45 -41.8Q189.3 -48.2 195.8 -51.9Q202.3 -55.6 210.4 -55.6Q218.4 -55.6 224.9 -51.9Q231.4 -48.2 235.25 -41.85Q239.1 -35.5 239.1 -27.2Q239.1 -19 235.2 -12.6Q231.3 -6.2 224.8 -2.5Q218.3 1.2 210.4 1.2ZM144 1.2Q136 1.2 129.25 -1.7Q122.5 -4.6 117.45 -9.8Q112.4 -15 109.6 -22Q106.8 -29 106.8 -37.3Q106.8 -45.6 109.55 -52.65Q112.3 -59.7 117.35 -64.85Q122.4 -70 129.2 -72.85Q136 -75.7 144 -75.7Q152 -75.7 158.35 -73Q164.7 -70.3 169.1 -65.85Q173.5 -61.4 175.4 -56.1L163.2 -50.4Q161.1 -56 156.1 -59.65Q151.1 -63.3 144 -63.3Q137 -63.3 131.65 -60Q126.3 -56.7 123.35 -50.9Q120.4 -45.1 120.4 -37.3Q120.4 -29.5 123.35 -23.65Q126.3 -17.8 131.65 -14.5Q137 -11.2 144 -11.2Q151.1 -11.2 156.1 -14.85Q161.1 -18.5 163.2 -24.1L175.4 -18.4Q173.5 -13.1 169.1 -8.65Q164.7 -4.2 158.35 -1.5Q152 1.2 144 1.2ZM299 1.2Q290.6 1.2 284.3 -2.6Q278 -6.4 274.5 -12.9Q271 -19.4 271 -27.3Q271 -35.5 274.55 -41.85Q278.1 -48.2 284.25 -51.9Q290.4 -55.6 298 -55.6Q304.4 -55.6 309.25 -53.5Q314.1 -51.4 317.5 -47.7Q320.9 -44 322.7 -39.25Q324.5 -34.5 324.5 -29Q324.5 -27.6 324.35 -26.1Q324.2 -24.6 323.8 -23.5H284.6Q284.9 -20.7 286 -18.4Q287.7 -14.5 291.15 -12.4Q294.6 -10.3 299.1 -10.3Q303.6 -10.3 306.75 -12.2Q309.9 -14.1 311.7 -17.3L322.3 -12.1Q320.7 -8.2 317.3 -5.2Q313.9 -2.2 309.25 -0.5Q304.6 1.2 299 1.2ZM412 1.2Q406.3 1.2 402.1 -0.7Q397.9 -2.6 395.6 -6.15Q393.3 -9.7 393.3 -14.4Q393.3 -18.9 395.3 -22.45Q397.3 -26 401.5 -28.4Q405.7 -30.8 412.1 -31.8L428.3 -34.4V-36.2Q428.3 -39.7 425.55 -42.05Q422.8 -44.4 418.3 -44.4Q414.1 -44.4 410.85 -42.15Q407.6 -39.9 406.1 -36.2L395.4 -41.4Q397 -45.7 400.45 -48.85Q403.9 -52 408.6 -53.8Q413.3 -55.6 418.8 -55.6Q425.5 -55.6 430.6 -53.15Q435.7 -50.7 438.55 -46.35Q441.4 -42 441.4 -36.2V0H429V-5.7Q428 -4.6 426.8 -3.7Q423.9 -1.3 420.2 -0.05Q416.5 1.2 412 1.2ZM248.5 0V-75.7H261.6V0ZM358.6 0V-54.4H370.9V-46.7Q372.7 -50.8 375.9 -52.6Q379.9 -55 385.6 -55H388.8V-43.4H384.1Q378.5 -43.4 375.1 -39.95Q371.7 -36.5 371.7 -30.3V0ZM210.4 -10.8Q214.8 -10.8 218.15 -12.9Q221.5 -15 223.45 -18.75Q225.4 -22.5 225.4 -27.2Q225.4 -32 223.45 -35.65Q221.5 -39.3 218.15 -41.45Q214.8 -43.6 210.4 -43.6Q205.9 -43.6 202.5 -41.45Q199.1 -39.3 197.15 -35.65Q195.2 -32 195.2 -27.2Q195.2 -22.5 197.15 -18.75Q199.1 -15 202.5 -12.9Q205.9 -10.8 210.4 -10.8ZM333.9 0V-54.4H347V0ZM428.3 -24.4 414.6 -22.1Q410.7 -21.4 408.8 -19.6Q406.9 -17.8 406.9 -14.9Q406.9 -12.1 409.05 -10.45Q411.2 -8.8 414.4 -8.8Q418.5 -8.8 421.65 -10.55Q424.8 -12.3 426.55 -15.4Q428.3 -18.5 428.3 -22.2ZM284.9 -33.5H310.5Q310.4 -35.4 309.8 -37Q308.4 -40.6 305.35 -42.7Q302.3 -44.8 298 -44.8Q293.9 -44.8 290.7 -42.75Q287.5 -40.7 285.9 -36.8Q285.2 -35.2 284.9 -33.5ZM333.9 -60.5V-74.5H347V-60.5Z M282.24 180.91Q273.52 187.45 262.09 189.35Q259.14 189.84 256.26 189.98H251.83Q240.07 189.41 229.55 182.74Q214.55 173.22 209.7 156.12Q204.85 139.03 212.63 123.05Q220.41 107.07 236.85 100.34L239.94 99.08L240.3 99.53L240.74 100.07L241.18 100.6L241.61 101.14L242.05 101.68L242.49 102.21L242.92 102.75L243.36 103.29L243.8 103.82L244.24 104.36L244.67 104.9L245.11 105.43L245.55 105.97L245.99 106.5L246.42 107.04L246.86 107.58L247.3 108.11L247.73 108.65L248.17 109.19L248.61 109.72L249.05 110.26L249.48 110.79L249.92 111.33L250.36 111.87L250.79 112.4L251.23 112.94L251.67 113.48L252.11 114.01L252.54 114.55L252.98 115.09L253.42 115.62L253.5 115.72L244.63 119.35Q235.44 123.11 231.09 132.04Q226.74 140.97 229.45 150.52Q232.16 160.08 240.55 165.4Q248.94 170.72 258.74 169.09Q259.53 168.96 260.31 168.79L260.3 168.78L260.67 168.7L260.98 168.62L261.28 168.54L261.59 168.45L261.89 168.37L262.2 168.27L262.5 168.18L262.8 168.08L263.1 167.98L263.4 167.87L263.69 167.76L263.99 167.65L264.28 167.53L264.57 167.41L264.86 167.28L265.15 167.16L265.43 167.03L265.72 166.89L266 166.75L266.28 166.61L266.56 166.47L266.84 166.32L267.12 166.17L267.39 166.02L267.66 165.86L267.93 165.7L268.2 165.53L268.47 165.36L268.73 165.19L268.99 165.02L269.25 164.84L269.51 164.66L269.77 164.48L270.02 164.29L270.27 164.1L270.52 163.91L270.77 163.71L271.01 163.52L271.26 163.31L271.5 163.11L271.74 162.9L271.97 162.69L272.2 162.48L272.43 162.26L272.66 162.04L272.89 161.82L273.11 161.59L273.33 161.36L273.55 161.13L273.76 160.9L273.97 160.66L274.18 160.42L274.39 160.18L274.6 159.93L274.8 159.68L275.19 159.19L275.63 158.65L276.06 158.11L276.5 157.57L276.93 157.03L278.24 155.4L278.67 154.86L279.11 154.32L279.54 153.78L279.97 153.24L280.41 152.7L280.84 152.16L281.28 151.62L282.15 150.54L282.58 150L283.02 149.46L283.45 148.92L283.89 148.38L284.76 147.29L285.19 146.75L285.63 146.21L286.06 145.67L287.8 143.51L288.24 142.97L288.67 142.43L289.97 140.81L290.41 140.27L290.84 139.73L291.28 139.18L291.71 138.64L292.58 137.56L293.02 137.02L293.45 136.48L294.76 134.86L295.19 134.32L295.63 133.78L296.06 133.24L296.93 132.16L297.37 131.62L297.8 131.07L299.11 129.45L299.54 128.91L299.97 128.37L300.41 127.83L300.84 127.29L301.28 126.75L301.71 126.21L302.15 125.67L302.58 125.13L303.02 124.59L303.45 124.05L303.89 123.51L304.32 122.97L304.76 122.42L305.19 121.88L305.63 121.34L306.06 120.8L306.5 120.26L306.93 119.72L307.37 119.18L307.8 118.64L308.24 118.1L308.67 117.56L309.08 117.05C311.29 123.99 317.06 129.34 324.25 130.95L324.24 130.97L323.8 131.51L323.37 132.05L322.93 132.59L322.5 133.13L322.06 133.67L321.63 134.21L321.19 134.75L320.76 135.29L320.32 135.83L319.89 136.37L319.45 136.91L319.02 137.45L318.58 137.99L318.15 138.54L317.71 139.08L317.28 139.62L316.84 140.16L316.41 140.7L315.97 141.24L315.54 141.78L315.11 142.32L313.8 143.94L313.37 144.48L312.93 145.02L312.06 146.1L311.63 146.65L311.19 147.19L310.76 147.73L309.45 149.35L309.02 149.89L308.58 150.43L307.71 151.51L307.28 152.05L306.84 152.59L306.41 153.13L305.97 153.67L304.67 155.3L304.24 155.84L303.8 156.38L302.06 158.54L301.63 159.08L301.19 159.62L300.76 160.16L299.89 161.24L299.45 161.78L299.02 162.32L298.58 162.87L298.15 163.41L297.28 164.49L296.84 165.03L296.41 165.57L295.97 166.11L295.54 166.65L295.11 167.19L294.67 167.73L294.24 168.27L292.93 169.89L292.5 170.43L292.06 170.98L291.63 171.52L291.19 172.06L290.72 172.65L290.36 173.09L289.99 173.53L289.62 173.96L289.24 174.39L288.86 174.81L288.47 175.23L288.08 175.64L287.69 176.05L287.29 176.45L286.88 176.85L286.47 177.24L286.06 177.63L285.64 178.01L285.22 178.38L284.79 178.75L284.36 179.12L283.93 179.48L283.49 179.83L283.04 180.18L282.6 180.53L282.15 180.86C282.18 180.88 282.21 180.89 282.24 180.91ZM235.59 72.76Q235.56 71.71 235.6 70.64Q236 57.77 244.75 48.32Q253.5 38.87 266.3 37.47Q279.11 36.08 289.68 43.42Q300.26 50.77 303.43 63.25Q306.6 75.74 300.8 87.24Q295.54 97.67 285.23 102.65L285 102.37L284.56 101.84L284.13 101.3L283.69 100.76L283.25 100.23L282.82 99.69L282.38 99.16L281.94 98.62L281.5 98.08L281.07 97.55L280.63 97.01L280.19 96.47L279.32 95.4L278.88 94.86L278.44 94.33L278.01 93.79L277.57 93.26L277.13 92.72L276.69 92.18L276.26 91.65L275.82 91.11L275.38 90.57L274.95 90.04L274.51 89.5L274.07 88.97L273.63 88.43L273.2 87.89L272.76 87.36L272.32 86.82L271.89 86.28L271.72 86.08L275.31 84.61Q280.12 82.64 282.46 77.99Q284.81 73.35 283.53 68.3Q282.25 63.26 277.97 60.29Q273.7 57.32 268.53 57.88Q264.83 58.29 261.97 60.35L261.99 60.36L261.85 60.46L261.72 60.56L261.59 60.66L261.45 60.76L261.32 60.86L261.2 60.97L261.07 61.07L260.94 61.18L260.82 61.29L260.69 61.4L260.57 61.51L260.45 61.63L260.33 61.74L260.21 61.86L260.09 61.98L259.97 62.1L259.86 62.22L259.74 62.34L259.63 62.47L259.52 62.59L259.41 62.72L259.31 62.85L259.2 62.98L259.1 63.11L258.99 63.24L258.89 63.37L258.79 63.51L258.7 63.64L258.6 63.78L258.51 63.91L258.41 64.05L258.32 64.19L258.24 64.33L258.15 64.47L258.06 64.61L257.98 64.76L257.9 64.9L257.82 65.04L257.74 65.19L257.66 65.34L257.59 65.48L257.51 65.63L257.44 65.78L257.37 65.93L257.3 66.08L257.24 66.23L257.17 66.39L257.11 66.54L257.05 66.69L256.99 66.85L256.94 67L256.88 67.16L256.83 67.31L256.78 67.47L256.73 67.63L256.68 67.79L256.63 67.95L256.59 68.1L256.55 68.26L256.51 68.43L256.47 68.59L256.43 68.75L256.4 68.91L256.36 69.07L256.33 69.24L256.31 69.4L256.28 69.56L256.25 69.73L256.23 69.89L256.21 70.06L256.19 70.22L256.17 70.39L256.16 70.56L256.15 70.72L256.13 70.89L256.13 71.06L256.12 71.22L256.11 71.39L256.11 71.56L256.11 71.73L256.11 71.89L256.11 72.06L256.12 72.23L256.13 72.39L256.13 72.56L256.15 72.73L256.16 72.89L256.17 73.06L256.19 73.22L256.21 73.39L256.23 73.55L256.25 73.72L256.28 73.88L256.3 74.05L256.33 74.21L256.36 74.37L256.4 74.53L256.43 74.7L256.47 74.86L256.5 75.02L256.54 75.18L256.59 75.34L256.63 75.5L256.68 75.66L256.72 75.81L256.77 75.97L256.82 76.13L256.88 76.28L256.93 76.44L256.99 76.6L257.05 76.75L257.11 76.9L257.17 77.06L257.24 77.21L257.3 77.36L257.37 77.51L257.44 77.66L257.51 77.81L257.58 77.96L257.66 78.11L257.74 78.25L257.81 78.4L257.89 78.54L257.98 78.69L258.06 78.83L258.15 78.97L258.23 79.12L258.32 79.26L258.41 79.39L258.51 79.53L258.6 79.67L258.7 79.81L258.79 79.94L258.89 80.08L258.99 80.21L259.1 80.34L259.24 80.52L259.68 81.06L260.12 81.59L260.55 82.13L260.99 82.67L261.43 83.2L261.86 83.74L262.3 84.28L262.74 84.81L263.18 85.35L263.61 85.88L264.05 86.42L264.49 86.96L264.93 87.49L265.36 88.03L265.8 88.57L266.24 89.1L266.67 89.64L267.11 90.18L267.55 90.71L267.99 91.25L268.42 91.78L268.86 92.32L269.3 92.86L269.73 93.39L270.17 93.93L270.61 94.47L271.05 95L271.48 95.54L271.92 96.08L272.36 96.61L272.79 97.15L273.23 97.68L273.67 98.22L274.11 98.76L274.54 99.29L275.42 100.37L275.86 100.9L276.29 101.44L276.73 101.97L277.17 102.51L277.6 103.05L278.04 103.58L278.48 104.12L278.92 104.66L279.35 105.19L279.79 105.73L280.23 106.27L280.66 106.8L281.1 107.34L281.54 107.87L281.98 108.41L282.41 108.95L282.85 109.48L283.29 110.02L283.73 110.56L284.16 111.09L284.6 111.63L285.04 112.17L285.47 112.7L285.91 113.24L286.35 113.77L286.79 114.31L287.22 114.85L288.1 115.92L288.53 116.46L288.97 116.99L289.85 118.07L290.28 118.6L290.72 119.14L291.16 119.67L291.59 120.21L292.03 120.75L292.47 121.28L292.91 121.82L293.34 122.36L293.78 122.89L294.22 123.43L294.35 123.59L294.66 123.96L295.09 124.5L295.14 124.56L295.53 125.04L295.97 125.57L296.4 126.11L296.84 126.65L297.28 127.18L297.72 127.72L298.15 128.26L298.36 128.51C294.14 133.96 288.7 138.43 282.45 141.49L282.24 141.23L281.98 140.92L281.8 140.69L281.36 140.16L280.93 139.62L280.49 139.08L280.05 138.55L279.62 138.01L279.18 137.47L278.74 136.94L278.44 136.56L278.3 136.4L277.87 135.87L277.43 135.33L276.99 134.79L276.55 134.26L276.12 133.72L275.68 133.18L275.24 132.65L274.81 132.11L274.37 131.57L273.93 131.04L273.06 129.97L272.62 129.43L272.18 128.89L271.31 127.82L270.87 127.28L270.43 126.75L270 126.21L269.56 125.67L269.12 125.14L268.69 124.6L268.25 124.07L267.81 123.53L267.37 122.99L266.94 122.46L266.5 121.92L266.06 121.38L265.62 120.85L265.19 120.31L264.75 119.78L264.31 119.24L263.88 118.7L263.44 118.17L263 117.63L262.56 117.09L262.13 116.56L261.69 116.02L261.25 115.48L260.82 114.95L260.38 114.41L259.94 113.88L259.5 113.34L258.63 112.27L258.19 111.73L257.75 111.19L257.32 110.66L256.88 110.12L256.44 109.58L256.01 109.05L255.57 108.51L255.13 107.98L254.69 107.44L254.26 106.9L253.82 106.37L253.38 105.83L252.95 105.29L252.51 104.76L252.07 104.22L251.63 103.68L251.2 103.15L250.76 102.61L250.32 102.08L249.89 101.54L249.45 101L249.01 100.47L248.57 99.93L248.14 99.39L247.7 98.86L247.26 98.32L246.82 97.79L246.39 97.25L245.95 96.71L245.51 96.18L245.08 95.64L244.64 95.1L244.2 94.57L243.76 94.03L243.33 93.49L243.11 93.22L242.85 92.89L242.6 92.57L242.35 92.23L242.1 91.9L241.86 91.56L241.63 91.23L241.4 90.88L241.17 90.54L240.95 90.19L240.73 89.85L240.51 89.5L240.3 89.14L240.1 88.79L239.9 88.43L239.7 88.07L239.51 87.71L239.32 87.34L239.14 86.98L238.96 86.61L238.78 86.24L238.61 85.87L238.45 85.49L238.29 85.12L238.13 84.74L237.98 84.36L237.83 83.98L237.69 83.59L237.55 83.21L237.41 82.82L237.29 82.44L237.16 82.05L237.04 81.66L236.93 81.26L236.81 80.87L236.71 80.48L236.61 80.08L236.51 79.68L236.42 79.28L236.33 78.88L236.25 78.48L236.17 78.08L236.1 77.68L236.03 77.27L235.96 76.87L235.91 76.46L235.85 76.05L235.8 75.65L235.76 75.24L235.72 74.83L235.68 74.42L235.65 74.01L235.63 73.6L235.61 73.18L235.59 72.77L235.59 72.75ZM347.32 189.98H321.98L303.2 166.95L303.38 166.73L303.82 166.18L304.25 165.64L304.69 165.1L305.56 164.02L305.99 163.48L306.43 162.94L306.86 162.4L308.6 160.24L309.04 159.7L309.47 159.16L310.77 157.53L311.21 156.99L311.64 156.45L312.08 155.91L312.51 155.37L313.38 154.29L313.82 153.75L314.25 153.21L315.56 151.59L315.99 151.05L316.36 150.59L345.37 186.18Q346.01 186.96 346.48 187.86Q346.96 188.75 347.25 189.72Q347.29 189.85 347.32 189.98Z"/><path fill="#C8694A" d="M343.29 110.77C343.29 118.79 336.79 125.28 328.78 125.28C320.76 125.28 314.26 118.79 314.26 110.77C314.26 102.76 320.76 96.26 328.78 96.26C336.79 96.26 343.29 102.76 343.29 110.77Z"/><path fill="#1B2B44" d="M284 321.73V247.33H296.3V253.73Q298.9 250.53 302.7 248.53Q307.5 246.12 313.8 246.12Q321.5 246.12 327.7 249.93Q333.9 253.73 337.55 260.12Q341.2 266.52 341.2 274.52Q341.2 282.43 337.6 288.93Q334 295.43 327.8 299.18Q321.6 302.93 313.7 302.93Q307.8 302.93 302.9 300.52Q299.5 299.02 297.1 296.43V321.73ZM7.2 301.73V227.23H35Q42.6 227.23 48.45 229.98Q54.3 232.73 57.6 237.98Q60.9 243.23 60.9 250.73Q60.9 258.12 57.55 263.38Q54.2 268.62 48.4 271.43Q42.6 274.23 35 274.23H20.8V301.73ZM377.3 302.93Q369.3 302.93 362.75 299.23Q356.2 295.52 352.35 289.12Q348.5 282.73 348.5 274.53Q348.5 266.33 352.35 259.93Q356.2 253.53 362.7 249.83Q369.2 246.12 377.3 246.12Q385.3 246.12 391.8 249.83Q398.3 253.53 402.15 259.88Q406 266.23 406 274.52Q406 282.73 402.1 289.12Q398.2 295.52 391.7 299.23Q385.2 302.93 377.3 302.93ZM519.9 302.93Q511.5 302.93 505.2 299.13Q498.9 295.33 495.4 288.83Q491.9 282.33 491.9 274.43Q491.9 266.23 495.45 259.88Q499 253.53 505.15 249.83Q511.3 246.12 518.9 246.12Q525.3 246.12 530.15 248.23Q535 250.33 538.4 254.03Q541.8 257.73 543.6 262.48Q545.4 267.23 545.4 272.73Q545.4 274.12 545.25 275.62Q545.1 277.12 544.7 278.23H505.5Q505.8 281.02 506.9 283.33Q508.6 287.23 512.05 289.33Q515.5 291.43 520 291.43Q524.5 291.43 527.65 289.53Q530.8 287.62 532.6 284.43L543.2 289.62Q541.6 293.52 538.2 296.52Q534.8 299.52 530.15 301.23Q525.5 302.93 519.9 302.93ZM83.7 302.93Q78 302.93 73.8 301.03Q69.6 299.12 67.3 295.57Q65 292.02 65 287.33Q65 282.83 67 279.28Q69 275.73 73.2 273.33Q77.4 270.93 83.8 269.93L100 267.33V265.52Q100 262.02 97.25 259.68Q94.5 257.33 90 257.33Q85.8 257.33 82.55 259.58Q79.3 261.83 77.8 265.52L67.1 260.33Q68.7 256.02 72.15 252.88Q75.6 249.73 80.3 247.93Q85 246.12 90.5 246.12Q97.2 246.12 102.3 248.58Q107.4 251.03 110.25 255.38Q113.1 259.73 113.1 265.52V301.73H100.7V296.02Q99.7 297.12 98.5 298.02Q95.6 300.43 91.9 301.68Q88.2 302.93 83.7 302.93ZM243 302.93Q237.3 302.93 233.1 301.03Q228.9 299.12 226.6 295.57Q224.3 292.02 224.3 287.33Q224.3 282.83 226.3 279.28Q228.3 275.73 232.5 273.33Q236.7 270.93 243.1 269.93L259.3 267.33V265.52Q259.3 262.02 256.55 259.68Q253.8 257.33 249.3 257.33Q245.1 257.33 241.85 259.58Q238.6 261.83 237.1 265.52L226.4 260.33Q228 256.02 231.45 252.88Q234.9 249.73 239.6 247.93Q244.3 246.12 249.8 246.12Q256.5 246.12 261.6 248.58Q266.7 251.03 269.55 255.38Q272.4 259.73 272.4 265.52V301.73H260V296.02Q259 297.12 257.8 298.02Q254.9 300.43 251.2 301.68Q247.5 302.93 243 302.93ZM145.4 302.93Q136.7 302.93 130.25 298.78Q123.8 294.62 121.4 287.52L131.2 282.83Q133.3 287.43 137.05 290.03Q140.8 292.62 145.4 292.62Q149 292.62 151.1 291.03Q153.2 289.43 153.2 286.83Q153.2 285.23 152.35 284.18Q151.5 283.12 150.05 282.38Q148.6 281.62 146.9 281.12L138 278.62Q131.1 276.62 127.55 272.53Q124 268.43 124 262.83Q124 257.83 126.55 254.08Q129.1 250.33 133.65 248.23Q138.2 246.12 144.1 246.12Q151.8 246.12 157.7 249.83Q163.6 253.53 166.1 260.23L156.1 264.93Q154.7 261.23 151.4 259.03Q148.1 256.83 144 256.83Q140.7 256.83 138.8 258.33Q136.9 259.83 136.9 262.23Q136.9 263.73 137.7 264.83Q138.5 265.93 139.95 266.63Q141.4 267.33 143.3 267.93L152 270.52Q158.7 272.52 162.35 276.52Q166 280.52 166 286.33Q166 291.23 163.4 294.98Q160.8 298.73 156.2 300.83Q151.6 302.93 145.4 302.93ZM196.3 302.93Q187.6 302.93 181.15 298.78Q174.7 294.62 172.3 287.52L182.1 282.83Q184.2 287.43 187.95 290.03Q191.7 292.62 196.3 292.62Q199.9 292.62 202 291.03Q204.1 289.43 204.1 286.83Q204.1 285.23 203.25 284.18Q202.4 283.12 200.95 282.38Q199.5 281.62 197.8 281.12L188.9 278.62Q182 276.62 178.45 272.53Q174.9 268.43 174.9 262.83Q174.9 257.83 177.45 254.08Q180 250.33 184.55 248.23Q189.1 246.12 195 246.12Q202.7 246.12 208.6 249.83Q214.5 253.53 217 260.23L207 264.93Q205.6 261.23 202.3 259.03Q199 256.83 194.9 256.83Q191.6 256.83 189.7 258.33Q187.8 259.83 187.8 262.23Q187.8 263.73 188.6 264.83Q189.4 265.93 190.85 266.63Q192.3 267.33 194.2 267.93L202.9 270.52Q209.6 272.52 213.25 276.52Q216.9 280.52 216.9 286.33Q216.9 291.23 214.3 294.98Q211.7 298.73 207.1 300.83Q202.5 302.93 196.3 302.93ZM478.6 302.33Q469.4 302.33 464.35 297.28Q459.3 292.23 459.3 283.02V259.02H449.9V247.33H450.9Q454.9 247.33 457.1 245.23Q459.3 243.12 459.3 239.12V234.93H472.4V247.33H484.9V259.02H472.4V282.33Q472.4 285.02 473.35 286.93Q474.3 288.83 476.35 289.83Q478.4 290.83 481.6 290.83Q482.3 290.83 483.25 290.73Q484.2 290.62 485.1 290.52V301.73Q483.7 301.93 481.9 302.13Q480.1 302.33 478.6 302.33ZM415.4 301.73V247.33H427.7V255.03Q429.5 250.93 432.7 249.12Q436.7 246.73 442.4 246.73H445.6V258.33H440.9Q435.3 258.33 431.9 261.78Q428.5 265.23 428.5 271.43V301.73ZM312.2 290.93Q316.7 290.93 320.2 288.83Q323.7 286.73 325.65 283.03Q327.6 279.33 327.6 274.53Q327.6 269.73 325.65 266.08Q323.7 262.43 320.2 260.28Q316.7 258.12 312.2 258.12Q307.9 258.12 304.45 260.23Q301 262.33 299.05 266.08Q297.1 269.83 297.1 274.52Q297.1 279.33 299.05 283.03Q301 286.73 304.45 288.83Q307.9 290.93 312.2 290.93ZM377.3 290.93Q381.7 290.93 385.05 288.83Q388.4 286.73 390.35 282.98Q392.3 279.23 392.3 274.52Q392.3 269.73 390.35 266.08Q388.4 262.43 385.05 260.28Q381.7 258.12 377.3 258.12Q372.8 258.12 369.4 260.28Q366 262.43 364.05 266.08Q362.1 269.73 362.1 274.52Q362.1 279.23 364.05 282.98Q366 286.73 369.4 288.83Q372.8 290.93 377.3 290.93ZM20.8 262.23H35.2Q38.9 262.23 41.6 260.78Q44.3 259.33 45.8 256.73Q47.3 254.12 47.3 250.73Q47.3 247.23 45.8 244.68Q44.3 242.12 41.6 240.68Q38.9 239.23 35.2 239.23H20.8ZM100 277.33 86.3 279.62Q82.4 280.33 80.5 282.13Q78.6 283.93 78.6 286.83Q78.6 289.62 80.75 291.28Q82.9 292.93 86.1 292.93Q90.2 292.93 93.35 291.18Q96.5 289.43 98.25 286.33Q100 283.23 100 279.52ZM259.3 277.33 245.6 279.62Q241.7 280.33 239.8 282.13Q237.9 283.93 237.9 286.83Q237.9 289.62 240.05 291.28Q242.2 292.93 245.4 292.93Q249.5 292.93 252.65 291.18Q255.8 289.43 257.55 286.33Q259.3 283.23 259.3 279.52ZM505.8 268.23H531.4Q531.3 266.33 530.7 264.73Q529.3 261.12 526.25 259.03Q523.2 256.93 518.9 256.93Q514.8 256.93 511.6 258.98Q508.4 261.02 506.8 264.93Q506.1 266.52 505.8 268.23Z M215.98 361.54Q214.52 361.54 213.27 361.02Q212.02 360.5 211.08 359.56Q210.13 358.62 209.6 357.37Q209.07 356.11 209.07 354.61Q209.07 353.12 209.6 351.85Q210.13 350.58 211.07 349.65Q212.01 348.73 213.26 348.21Q214.52 347.7 215.98 347.7Q217.46 347.7 218.71 348.21Q219.96 348.73 220.91 349.66Q221.85 350.6 222.37 351.86Q222.9 353.12 222.9 354.61Q222.9 356.11 222.36 357.37Q221.83 358.62 220.9 359.56Q219.96 360.5 218.7 361.02Q217.44 361.54 215.98 361.54ZM121 361.54Q119.54 361.54 118.29 361.02Q117.04 360.5 116.09 359.56Q115.15 358.62 114.62 357.37Q114.08 356.11 114.08 354.61Q114.08 353.12 114.62 351.85Q115.15 350.58 116.08 349.65Q117.02 348.73 118.28 348.21Q119.54 347.7 121 347.7Q122.47 347.7 123.72 348.21Q124.97 348.73 125.92 349.66Q126.86 350.6 127.39 351.86Q127.91 353.12 127.91 354.61Q127.91 356.11 127.38 357.37Q126.85 358.62 125.91 359.56Q124.97 360.5 123.72 361.02Q122.46 361.54 121 361.54ZM383.47 361.33V347.92H388.35Q389.7 347.92 390.73 348.41Q391.75 348.9 392.34 349.85Q392.92 350.8 392.92 352.11Q392.92 353.49 392.23 354.49Q391.54 355.48 390.37 355.92L393.46 361.33H391.05L388.21 356.29H385.6V361.33ZM229.23 361.33V347.92H234.11Q235.46 347.92 236.49 348.41Q237.51 348.9 238.1 349.85Q238.68 350.8 238.68 352.11Q238.68 353.49 237.99 354.49Q237.29 355.48 236.12 355.92L239.22 361.33H236.81L233.96 356.29H231.35V361.33ZM292.12 361.33V347.92H294.1L298.64 354.21L303.1 347.92H305.08V361.33H302.98V351.71L298.71 357.55H298.49L294.25 351.61V361.33ZM318.92 361.33V347.92H323.8Q325.15 347.92 326.19 348.41Q327.22 348.9 327.8 349.85Q328.38 350.8 328.38 352.11Q328.38 353.4 327.79 354.34Q327.2 355.28 326.18 355.78Q325.15 356.29 323.8 356.29H321.05V361.33ZM252.63 361.33 257.35 347.92H259.98L264.69 361.33H262.42L261.4 358.32H255.94L254.9 361.33ZM398.02 361.33 402.73 347.92H405.36L410.08 361.33H407.81L406.78 358.32H401.33L400.29 361.33ZM134.24 361.33V347.92H135.96L142.67 357.18V347.92H144.77V361.33H143.07L136.37 351.95V361.33ZM215.98 359.6Q217.03 359.6 217.9 359.22Q218.77 358.84 219.42 358.17Q220.07 357.49 220.43 356.58Q220.79 355.67 220.79 354.61Q220.79 353.55 220.43 352.65Q220.07 351.75 219.42 351.07Q218.77 350.38 217.9 350Q217.03 349.62 215.98 349.62Q214.94 349.62 214.07 350Q213.19 350.38 212.54 351.07Q211.9 351.75 211.55 352.65Q211.2 353.55 211.2 354.61Q211.2 355.67 211.55 356.58Q211.9 357.49 212.54 358.17Q213.19 358.84 214.07 359.22Q214.96 359.6 215.98 359.6ZM121 359.6Q122.04 359.6 122.91 359.22Q123.79 358.84 124.44 358.17Q125.08 357.49 125.44 356.58Q125.8 355.67 125.8 354.61Q125.8 353.55 125.44 352.65Q125.08 351.75 124.44 351.07Q123.79 350.38 122.91 350Q122.04 349.62 121 349.62Q119.95 349.62 119.08 350Q118.21 350.38 117.56 351.07Q116.91 351.75 116.56 352.65Q116.21 353.55 116.21 354.61Q116.21 355.67 116.56 356.58Q116.91 357.49 117.56 358.17Q118.21 358.84 119.09 359.22Q119.97 359.6 121 359.6ZM277.35 361.33V347.92H286.18V349.8H279.47V353.66H285.82V355.55H279.47V359.43H286.18V361.33ZM334.51 361.33V347.92H343.35V349.8H336.64V353.66H342.99V355.55H336.64V359.43H343.35V361.33ZM430.96 361.33V347.92H439.8V349.8H433.08V353.66H439.43V355.55H433.08V359.43H439.8V361.33ZM172.13 361.54Q170.64 361.54 169.48 360.91Q168.32 360.28 167.66 359.18Q167.01 358.08 167.01 356.68V347.92H169.13V356.59Q169.13 357.47 169.52 358.16Q169.9 358.84 170.58 359.22Q171.25 359.6 172.13 359.6Q173.04 359.6 173.71 359.22Q174.38 358.84 174.77 358.16Q175.16 357.47 175.16 356.59V347.92H177.26V356.68Q177.26 358.08 176.62 359.18Q175.97 360.28 174.81 360.91Q173.65 361.54 172.13 361.54ZM156.21 361.54Q154.95 361.54 153.87 361.06Q152.79 360.59 152.03 359.76Q151.27 358.93 150.91 357.85L152.71 357.1Q153.2 358.34 154.14 359Q155.07 359.67 156.29 359.67Q157.01 359.67 157.56 359.44Q158.1 359.22 158.39 358.8Q158.69 358.39 158.69 357.85Q158.69 357.11 158.27 356.68Q157.86 356.25 157.05 356L154.53 355.2Q153.02 354.74 152.23 353.77Q151.43 352.81 151.43 351.52Q151.43 350.38 151.99 349.53Q152.55 348.67 153.53 348.18Q154.51 347.7 155.77 347.7Q156.98 347.7 157.97 348.12Q158.96 348.55 159.67 349.28Q160.38 350.02 160.71 350.99L158.94 351.77Q158.54 350.7 157.71 350.13Q156.87 349.55 155.77 349.55Q155.11 349.55 154.6 349.78Q154.1 350 153.82 350.43Q153.54 350.85 153.54 351.41Q153.54 352.05 153.96 352.56Q154.37 353.06 155.21 353.32L157.55 354.05Q159.16 354.54 159.97 355.45Q160.78 356.36 160.78 357.71Q160.78 358.82 160.19 359.69Q159.61 360.55 158.58 361.05Q157.55 361.54 156.21 361.54ZM102.78 361.54Q101.36 361.54 100.14 361.02Q98.93 360.5 98.04 359.57Q97.15 358.64 96.64 357.38Q96.14 356.12 96.14 354.61Q96.14 353.12 96.63 351.85Q97.13 350.58 98.03 349.65Q98.93 348.73 100.14 348.21Q101.34 347.7 102.78 347.7Q104.2 347.7 105.33 348.18Q106.45 348.67 107.23 349.45Q108 350.24 108.34 351.15L106.43 352.05Q106 350.98 105.06 350.3Q104.11 349.62 102.78 349.62Q101.45 349.62 100.42 350.26Q99.4 350.89 98.83 352Q98.26 353.12 98.26 354.61Q98.26 356.11 98.83 357.23Q99.4 358.36 100.42 358.98Q101.45 359.6 102.78 359.6Q104.11 359.6 105.06 358.93Q106 358.27 106.43 357.18L108.34 358.08Q108 358.98 107.23 359.78Q106.45 360.57 105.33 361.05Q104.2 361.54 102.78 361.54ZM418.29 361.33 413.53 347.92H415.82L419.47 358.7L423.13 347.92H425.41L420.66 361.33ZM351.67 361.33V349.8H348.1V347.92H357.28V349.8H353.77V361.33ZM372.31 361.33V349.8H368.75V347.92H377.93V349.8H374.42V361.33ZM198.85 361.33V349.8H195.28V347.92H204.46V349.8H200.95V361.33ZM445.73 361.33V347.92H447.86V359.43H453.65V361.33ZM183.89 361.33V347.92H186.01V359.43H191.81V361.33ZM244.96 361.33V347.92H247.09V361.33ZM321.05 354.39H323.86Q324.58 354.39 325.12 354.11Q325.66 353.82 325.96 353.31Q326.27 352.79 326.27 352.09Q326.27 351.39 325.96 350.88Q325.66 350.36 325.12 350.08Q324.58 349.8 323.86 349.8H321.05ZM385.6 354.39H388.39Q389.12 354.39 389.66 354.11Q390.2 353.82 390.5 353.31Q390.8 352.79 390.8 352.09Q390.8 351.39 390.5 350.88Q390.2 350.36 389.66 350.08Q389.12 349.8 388.39 349.8H385.6ZM231.35 354.39H234.15Q234.88 354.39 235.42 354.11Q235.96 353.82 236.26 353.31Q236.56 352.79 236.56 352.09Q236.56 351.39 236.26 350.88Q235.96 350.36 235.42 350.08Q234.88 349.8 234.15 349.8H231.35ZM256.55 356.43H260.75L258.66 350.27ZM401.94 356.43H406.14L404.05 350.27Z"/></svg>