<svg xmlns="http://www.w3.org/2000/svg" viewBox="0 0 509.84 448.0" width="509.84" height="448.0"><rect width="509.84" height="448.0" fill="#2440B5"/><g transform="translate(24,24)"><g transform="translate(0.00,0.00) scale(0.75012) translate(-22.15,-201.12)"><path d="M 76.20 335.92 Q 135.20 306.34 162.99 361.76 Q 190.78 417.18 131.79 446.76 Q 72.79 476.35 45.00 420.93 Q 17.20 365.51 76.20 335.92 Z M 234.43 230.18 Q 299.64 219.99 309.21 281.25 Q 318.78 342.50 253.57 352.69 Q 188.36 362.88 178.79 301.62 Q 169.22 240.36 234.43 230.18 Z M 425.57 230.18 Q 490.78 240.36 481.21 301.62 Q 471.64 362.88 406.43 352.69 Q 341.22 342.50 350.79 281.25 Q 360.36 219.99 425.57 230.18 Z M 583.80 335.92 Q 642.80 365.51 615.00 420.93 Q 587.21 476.35 528.21 446.76 Q 469.22 417.18 497.01 361.76 Q 524.80 306.34 583.80 335.92 Z" fill="#FFFFFF"/><g transform="translate(0,566.0) scale(1,0.93) translate(0,-566.0)"><path d="M 433.24 462.76 Q 536.48 566.00 433.24 669.24 Q 330.00 772.48 226.76 669.24 Q 123.52 566.00 226.76 462.76 Q 330.00 359.52 433.24 462.76 Z" fill="#AFC0F4"/></g></g></g></svg>