<svg xmlns="http://www.w3.org/2000/svg" viewBox="0 0 596.6 472.4" width="596.6" height="472.4"><g transform="translate(40,40)"><g transform="translate(193.74,0.00) scale(1.29114) translate(0.00,26.00)"><path d="M 4 0 L 14 0 L 27 -20.3 Q 29.5 -22.9 31 -18.2 L 40 0 L 74 0 L 100 26 L 100 123 Q 100 132 91 132 L 4 132 Q 0 132 0 128 L 0 4 Q 0 0 4 0 Z" fill="#232322"/><path d="M 74 0 L 100 26 L 79 26 Q 74 26 74 21 Z" fill="#E3968C"/><rect x="9" y="6" width="3.2" height="120" rx="1.6" fill="#FFFFFF"/><rect x="38.0" y="81.84" width="30" height="3.4" rx="1.7" fill="#E3968C"/><circle cx="53.0" cy="94.84" r="7.5" fill="none" stroke="#E3968C" stroke-width="3.4"/><rect x="38.0" y="105.04" width="30" height="3.4" rx="1.7" fill="#E3968C"/></g><path d="M25.439999999999998 264.36V311.22Q25.439999999999998 312.6 25.89 313.29Q26.34 313.98 27.24 314.28L30.0 314.82Q30.779999999999998 315.06 31.14 315.48Q31.5 315.9 31.5 316.44Q31.5 317.16 31.02 317.58000000000004Q30.54 318.0 29.459999999999997 318.0H5.58Q4.62 318.0 4.109999999999999 317.58000000000004Q3.5999999999999996 317.16 3.5999999999999996 316.44Q3.5999999999999996 315.9 3.96 315.51Q4.32 315.12 5.04 314.88L7.92 314.28Q8.879999999999999 313.98 9.299999999999999 313.29Q9.719999999999999 312.6 9.719999999999999 311.28V272.58Q9.719999999999999 271.62 9.39 271.14Q9.06 270.66 8.28 270.6L4.8 270.48Q4.08 270.3 3.75 269.97Q3.42 269.64 3.42 269.1Q3.42 268.44 3.81 268.05Q4.2 267.66 5.16 267.36L19.08 262.92Q20.64 262.38 21.48 262.16999999999996Q22.32 261.96 22.98 261.96Q24.24 261.96 24.839999999999996 262.62Q25.439999999999998 263.28 25.439999999999998 264.36Z M58.44 264.42V311.28Q58.44 312.6 58.919999999999995 313.32000000000005Q59.39999999999999 314.04 60.3 314.28L63.0 314.88Q64.25999999999999 315.36 64.25999999999999 316.38Q64.25999999999999 318.0 62.22 318.0H38.64Q37.62 318.0 37.11 317.58000000000004Q36.599999999999994 317.16 36.599999999999994 316.44Q36.599999999999994 315.9 36.989999999999995 315.51Q37.379999999999995 315.12 38.099999999999994 314.88L40.919999999999995 314.28Q41.879999999999995 313.98 42.3 313.32000000000005Q42.72 312.66 42.72 311.34V272.64Q42.72 271.68 42.39 271.17Q42.059999999999995 270.66 41.339999999999996 270.6L37.739999999999995 270.48Q37.08 270.3 36.75 269.97Q36.419999999999995 269.64 36.419999999999995 269.1Q36.419999999999995 268.5 36.809999999999995 268.08000000000004Q37.199999999999996 267.66 38.16 267.36L52.08 262.92Q53.519999999999996 262.38 54.419999999999995 262.16999999999996Q55.31999999999999 261.96 56.099999999999994 261.96Q57.239999999999995 261.96 57.839999999999996 262.65Q58.44 263.34000000000003 58.44 264.42ZM56.879999999999995 277.08 55.14 275.28 57.36 273.24Q64.25999999999999 266.82 69.57 264.29999999999995Q74.88 261.78 79.5 261.78Q86.4 261.78 90.63 266.1Q94.85999999999999 270.42 94.85999999999999 278.52V311.22Q94.85999999999999 312.66 95.36999999999999 313.35Q95.88 314.04 96.84 314.34L99.06 314.88Q100.32 315.36 100.32 316.38Q100.32 318.0 98.16 318.0H75.35999999999999Q73.32 318.0 73.32 316.38Q73.32 315.36 74.63999999999999 314.88L77.22 314.34Q78.35999999999999 313.98 78.80999999999999 313.17Q79.25999999999999 312.36 79.25999999999999 310.86V280.56Q79.25999999999999 275.4 76.77 272.76Q74.28 270.12 70.19999999999999 270.12Q67.5 270.12 64.77 271.28999999999996Q62.03999999999999 272.46 59.16 275.04ZM93.17999999999999 277.08 91.38 275.28 93.53999999999999 273.18Q99.66 267.12 104.49 264.45Q109.32 261.78 113.94 261.78Q120.53999999999999 261.78 124.41 266.13Q128.28 270.48 129.18 278.52L133.01999999999998 311.16Q133.2 312.66 133.64999999999998 313.38Q134.1 314.1 135.06 314.4L137.28 314.88Q138.06 315.12 138.39 315.51Q138.72 315.9 138.72 316.44Q138.72 317.16 138.24 317.58000000000004Q137.76 318.0 136.73999999999998 318.0H113.16Q111.12 318.0 111.12 316.38Q111.12 315.36 112.44 314.88L115.01999999999998 314.34Q116.16 314.04 116.67 313.17Q117.18 312.3 117.0 310.8L113.57999999999998 280.56Q112.97999999999999 275.4 110.91 272.76Q108.84 270.12 105.0 270.12Q102.66 270.12 100.28999999999999 271.35Q97.91999999999999 272.58 95.28 274.98Z M163.92 264.36V311.22Q163.92 312.6 164.37 313.29Q164.82 313.98 165.72 314.28L168.48 314.82Q169.26 315.06 169.62 315.48Q169.98 315.9 169.98 316.44Q169.98 317.16 169.5 317.58000000000004Q169.01999999999998 318.0 167.94 318.0H144.06Q143.1 318.0 142.58999999999997 317.58000000000004Q142.07999999999998 317.16 142.07999999999998 316.44Q142.07999999999998 315.9 142.44 315.51Q142.79999999999998 315.12 143.51999999999998 314.88L146.39999999999998 314.28Q147.35999999999999 313.98 147.77999999999997 313.29Q148.2 312.6 148.2 311.28V272.58Q148.2 271.62 147.87 271.14Q147.54 270.66 146.76 270.6L143.28 270.48Q142.56 270.3 142.23 269.97Q141.89999999999998 269.64 141.89999999999998 269.1Q141.89999999999998 268.44 142.28999999999996 268.05Q142.67999999999998 267.66 143.64 267.36L157.56 262.92Q159.12 262.38 159.95999999999998 262.16999999999996Q160.79999999999998 261.96 161.45999999999998 261.96Q162.72 261.96 163.32 262.62Q163.92 263.28 163.92 264.36Z M211.85999999999999 313.92Q204.18 312.54 200.57999999999998 311.49Q196.98 310.44 195.95999999999998 309.48Q194.94 308.52 194.94 307.38Q194.94 306.24 195.78 305.34000000000003Q196.62 304.44 198.24 303.84L197.51999999999998 303.12Q191.82 303.78 188.55 305.34Q185.28 306.9 183.87 309.06Q182.45999999999998 311.22 182.45999999999998 313.8Q182.45999999999998 316.68 184.23 318.69Q186.0 320.7 190.5 322.26Q195.0 323.82 203.22 325.32Q210.18 326.52 213.99 327.87Q217.79999999999998 329.22 219.32999999999998 330.9Q220.85999999999999 332.58 220.85999999999999 334.86Q220.85999999999999 337.74 219.14999999999998 339.75Q217.44 341.76 213.87 342.81Q210.29999999999998 343.86 204.72 343.86Q194.57999999999998 343.86 190.07999999999998 340.14Q185.57999999999998 336.42 185.57999999999998 330.42Q185.57999999999998 327.6 187.82999999999998 325.41Q190.07999999999998 323.22 194.45999999999998 322.44L193.85999999999999 321.18Q182.94 322.5 178.5 325.91999999999996Q174.06 329.34 174.06 334.2Q174.06 338.04 176.91 341.04Q179.76 344.04 186.08999999999997 345.75Q192.42 347.46 202.85999999999999 347.46Q217.98 347.46 226.05 342.41999999999996Q234.12 337.38 234.12 329.46Q234.12 325.2 232.07999999999998 322.23Q230.04 319.26 225.18 317.25Q220.32 315.24 211.85999999999999 313.92ZM212.94 266.52 215.51999999999998 266.76Q217.26 263.28 218.64 261.84Q220.01999999999998 260.4 221.88 260.4Q223.44 260.4 224.43 261.36Q225.42 262.32 226.29 263.58000000000004Q227.16 264.84000000000003 228.32999999999998 265.8Q229.5 266.76 231.35999999999999 266.76Q234.06 266.76 235.59 264.93Q237.12 263.1 237.12 260.04Q237.12 256.38 234.84 254.22Q232.56 252.06 228.72 252.06Q224.16 252.06 220.52999999999997 255.12Q216.89999999999998 258.18 214.26 263.76ZM229.62 282.66Q229.62 276.9 226.5 272.15999999999997Q223.38 267.42 217.58999999999997 264.63Q211.79999999999998 261.84000000000003 203.76 261.84000000000003Q195.35999999999999 261.84000000000003 189.18 264.72Q183.0 267.6 179.61 272.64Q176.22 277.68 176.22 284.28Q176.22 289.98 179.45999999999998 294.65999999999997Q182.7 299.34 188.60999999999999 302.1Q194.51999999999998 304.86 202.56 304.86Q210.54 304.86 216.66 302.04Q222.78 299.22 226.2 294.18Q229.62 289.14 229.62 282.66ZM200.7 265.2Q205.68 264.9 209.04 269.7Q212.39999999999998 274.5 213.24 283.26Q214.14 291.6 211.89 296.31Q209.64 301.02 204.95999999999998 301.26Q201.72 301.44 199.07999999999998 299.34000000000003Q196.44 297.24 194.73 293.13Q193.01999999999998 289.02 192.42 283.26Q191.88 277.74 192.69 273.75Q193.5 269.76 195.57 267.57Q197.64 265.38 200.7 265.2Z M259.32 287.04Q259.32 278.7 261.69 273.06Q264.06 267.42 267.9 264.6Q271.74 261.78 276.0 261.78Q281.15999999999997 261.78 283.95 264.81Q286.74 267.84000000000003 286.74 273.48Q286.74 278.46 284.58000000000004 280.89Q282.42 283.32 279.06 283.32Q275.76 283.32 274.08 281.54999999999995Q272.4 279.78 272.34 276.42V274.38Q272.28 272.52 271.5 271.59000000000003Q270.72 270.66 268.86 270.66Q266.82 270.66 264.99 272.43Q263.15999999999997 274.2 261.99 277.83Q260.82 281.46 260.82 287.04ZM260.28 264.6 260.82 281.04V311.04Q260.82 312.3 261.36 312.99Q261.9 313.68 263.21999999999997 313.92L268.74 314.76Q269.64 314.94 270.06 315.33000000000004Q270.48 315.72 270.48 316.44Q270.48 317.16 269.94 317.58000000000004Q269.4 318.0 268.38 318.0H241.02Q240.0 318.0 239.49 317.58000000000004Q238.98 317.16 238.98 316.44Q238.98 315.9 239.33999999999997 315.48Q239.7 315.06 240.54 314.82L243.3 314.28Q244.2 313.98 244.64999999999998 313.32000000000005Q245.1 312.66 245.1 311.34V272.58Q245.1 271.56 244.76999999999998 271.08000000000004Q244.44 270.6 243.66 270.48L240.06 270.36Q239.4 270.24 239.07 269.88Q238.74 269.52 238.74 268.98Q238.74 268.38 239.16 267.99Q239.57999999999998 267.6 240.54 267.24L254.34 263.22Q256.14 262.56 257.01 262.35Q257.88 262.14 258.42 262.14Q259.26 262.14 259.71 262.71Q260.15999999999997 263.28 260.28 264.6Z M325.02 311.28V310.38L324.12 310.5V273.42Q324.12 269.16 322.14 266.85Q320.15999999999997 264.54 316.5 264.54Q312.84 264.54 310.94999999999993 266.22Q309.05999999999995 267.9 309.05999999999995 270.18V275.28Q309.05999999999995 278.58 306.78 280.59000000000003Q304.5 282.6 300.65999999999997 282.6Q297.53999999999996 282.6 295.79999999999995 280.98Q294.06 279.36 294.06 276.36Q294.06 272.88 296.90999999999997 269.52Q299.76 266.16 305.30999999999995 263.97Q310.85999999999996 261.78 318.96 261.78Q329.46 261.78 334.62 266.1Q339.78 270.42 339.78 277.98V309.12Q339.78 311.04 340.46999999999997 311.90999999999997Q341.15999999999997 312.78 342.35999999999996 312.78Q343.55999999999995 312.78 344.30999999999995 312.15Q345.05999999999995 311.52 345.41999999999996 310.44Q345.59999999999997 310.14 345.84 309.96Q346.08 309.78 346.43999999999994 309.78Q346.85999999999996 309.78 347.09999999999997 310.11Q347.34 310.44 347.34 311.04Q347.34 312.6 346.08 314.55Q344.82 316.5 342.24 317.90999999999997Q339.65999999999997 319.32 335.64 319.32Q330.53999999999996 319.32 327.78 317.13Q325.02 314.94 325.02 311.28ZM291.29999999999995 305.82Q291.29999999999995 298.8 297.41999999999996 294.48Q303.53999999999996 290.16 315.41999999999996 290.16Q319.2 290.16 321.99 290.85Q324.78 291.54 326.94 292.62L326.03999999999996 294.96Q324.0 294.0 321.87 293.43Q319.73999999999995 292.86 317.15999999999997 292.86Q312.47999999999996 292.86 309.84 295.62Q307.2 298.38 307.2 303.36Q307.2 308.22 309.57 310.77Q311.94 313.32 315.65999999999997 313.32Q318.53999999999996 313.32 321.29999999999995 311.97Q324.05999999999995 310.62 325.85999999999996 308.16L326.88 310.2Q323.88 314.58 318.78 316.95Q313.67999999999995 319.32 307.85999999999996 319.32Q300.47999999999996 319.32 295.89 315.57Q291.29999999999995 311.82 291.29999999999995 305.82Z M372.47999999999996 264.18V271.44L372.84 272.46V339.24Q372.84 340.62 373.28999999999996 341.31Q373.73999999999995 342.0 374.69999999999993 342.24L378.11999999999995 342.84Q378.9 343.08 379.26 343.5Q379.61999999999995 343.92 379.61999999999995 344.46Q379.61999999999995 345.18 379.14 345.6Q378.65999999999997 346.02 377.5799999999999 346.02H353.21999999999997Q352.19999999999993 346.02 351.7199999999999 345.6Q351.23999999999995 345.18 351.23999999999995 344.46Q351.23999999999995 343.92 351.5999999999999 343.5Q351.9599999999999 343.08 352.79999999999995 342.84L355.31999999999994 342.3Q356.28 342.0 356.69999999999993 341.31Q357.11999999999995 340.62 357.11999999999995 339.3V272.46Q357.11999999999995 271.44 356.78999999999996 270.99Q356.4599999999999 270.54 355.67999999999995 270.42L352.19999999999993 270.3Q351.47999999999996 270.18 351.15 269.82Q350.81999999999994 269.46 350.81999999999994 268.92Q350.81999999999994 268.26 351.2099999999999 267.93Q351.59999999999997 267.6 352.55999999999995 267.18L366.11999999999995 262.8Q367.55999999999995 262.2 368.42999999999995 261.99Q369.29999999999995 261.78 369.9599999999999 261.78Q371.21999999999997 261.78 371.84999999999997 262.44Q372.47999999999996 263.1 372.47999999999996 264.18ZM370.49999999999994 277.08 368.75999999999993 274.86Q373.19999999999993 268.5 378.53999999999996 265.11Q383.87999999999994 261.72 390.47999999999996 261.72Q397.25999999999993 261.72 402.53999999999996 265.14Q407.81999999999994 268.56 410.8499999999999 274.68Q413.87999999999994 280.8 413.87999999999994 289.02Q413.87999999999994 298.32 410.30999999999995 305.13Q406.73999999999995 311.94 400.61999999999995 315.65999999999997Q394.49999999999994 319.38 386.93999999999994 319.38Q380.3399999999999 319.38 375.65999999999997 316.56Q370.97999999999996 313.74 367.91999999999996 308.16L370.61999999999995 306.06Q373.0199999999999 310.38 376.28999999999996 312.53999999999996Q379.55999999999995 314.7 383.4599999999999 314.7Q387.53999999999996 314.7 390.74999999999994 312.29999999999995Q393.9599999999999 309.9 395.78999999999996 304.62Q397.61999999999995 299.34 397.61999999999995 290.76Q397.61999999999995 282.72 395.90999999999997 277.65Q394.19999999999993 272.58 391.19999999999993 270.15Q388.19999999999993 267.72 384.35999999999996 267.72Q380.69999999999993 267.72 377.15999999999997 270.0Q373.61999999999995 272.28 370.49999999999994 277.08Z M472.19999999999993 284.52Q472.19999999999993 286.5 471.05999999999995 287.61Q469.91999999999996 288.72 467.69999999999993 288.72H430.37999999999994V285.72H454.37999999999994Q456.4799999999999 285.72 456.4799999999999 283.68Q456.4799999999999 274.5 453.5999999999999 269.97Q450.7199999999999 265.44 446.2799999999999 265.44Q442.67999999999995 265.44 440.00999999999993 267.72Q437.3399999999999 270.0 435.80999999999995 274.47Q434.2799999999999 278.94 434.2799999999999 285.48Q434.2799999999999 297.48 439.6199999999999 303.45000000000005Q444.9599999999999 309.42 453.7199999999999 309.42Q459.41999999999996 309.42 463.53 306.69Q467.63999999999993 303.96 469.0799999999999 299.22Q469.67999999999995 298.44 470.06999999999994 298.16999999999996Q470.4599999999999 297.9 470.87999999999994 297.9Q471.4799999999999 297.9 471.7799999999999 298.40999999999997Q472.0799999999999 298.92 472.0199999999999 299.76Q471.7199999999999 305.22 468.50999999999993 309.66Q465.29999999999995 314.1 459.86999999999995 316.74Q454.43999999999994 319.38 447.5399999999999 319.38Q439.43999999999994 319.38 433.19999999999993 315.93Q426.9599999999999 312.48 423.44999999999993 306.24Q419.93999999999994 300.0 419.93999999999994 291.66Q419.93999999999994 282.84000000000003 423.38999999999993 276.09000000000003Q426.8399999999999 269.34000000000003 433.19999999999993 265.53000000000003Q439.55999999999995 261.72 448.25999999999993 261.72Q455.75999999999993 261.72 461.0999999999999 264.66Q466.43999999999994 267.6 469.31999999999994 272.76Q472.19999999999993 277.92 472.19999999999993 284.52Z M481.7399999999999 267.12 477.8399999999999 266.22Q476.93999999999994 265.92 476.54999999999995 265.53Q476.1599999999999 265.14 476.1599999999999 264.6Q476.1599999999999 263.88 476.6699999999999 263.46000000000004Q477.1799999999999 263.04 477.9599999999999 263.04H482.3399999999999Q483.2999999999999 263.04 483.9599999999999 262.71000000000004Q484.6199999999999 262.38 485.2799999999999 261.48L494.0999999999999 251.28Q494.93999999999994 250.32 495.7199999999999 249.84Q496.4999999999999 249.36 497.2799999999999 249.36Q498.1199999999999 249.36 498.56999999999994 249.9Q499.0199999999999 250.44 499.0199999999999 251.46V302.34Q499.0199999999999 306.9 500.7599999999999 309.17999999999995Q502.4999999999999 311.46 505.5599999999999 311.46Q507.2999999999999 311.46 508.43999999999994 310.83Q509.5799999999999 310.2 510.38999999999993 309.24Q511.19999999999993 308.28 511.88999999999993 307.26Q512.5799999999999 306.24 513.3599999999999 305.4Q513.8999999999999 305.22 514.3199999999999 305.55Q514.7399999999999 305.88 514.68 306.84Q514.1999999999999 310.5 512.2199999999999 313.26Q510.2399999999999 316.02 506.9099999999999 317.58Q503.5799999999999 319.14 499.13999999999993 319.14Q491.75999999999993 319.14 487.6499999999999 315.53999999999996Q483.5399999999999 311.94 483.5399999999999 304.62V269.64Q483.5399999999999 268.56 483.1499999999999 267.99Q482.75999999999993 267.42 481.7399999999999 267.12ZM493.37999999999994 266.88 493.6199999999999 263.04H512.5199999999999Q513.4799999999999 263.04 513.9599999999999 263.4Q514.4399999999999 263.76 514.4399999999999 264.48Q514.4399999999999 265.5 513.4199999999998 266.19Q512.3999999999999 266.88 510.1799999999999 266.88Z" fill="#232322"/><rect x="8.45" y="230.29" width="16.71" height="23.21" rx="3.34" fill="#E3968C"/><rect x="146.93" y="230.29" width="16.71" height="23.21" rx="3.34" fill="#232322"/><path d="M116.60399999999997 384.288Q114.99599999999997 384.288 113.77199999999996 383.496Q112.54799999999997 382.704 111.86399999999998 381.276Q111.17999999999996 379.848 111.17999999999996 378.0Q111.17999999999996 376.128 111.86399999999998 374.712Q112.54799999999997 373.296 113.77199999999996 372.504Q114.99599999999997 371.712 116.60399999999997 371.712Q117.92399999999996 371.712 118.96799999999996 372.32399999999996Q120.01199999999997 372.936 120.65999999999997 374.016V367.2H122.57999999999997V384.0H120.75599999999997L120.65999999999997 381.96Q120.01199999999997 383.04 118.96799999999996 383.664Q117.92399999999996 384.288 116.60399999999997 384.288ZM117.03599999999997 382.536Q118.09199999999997 382.536 118.89599999999997 381.972Q119.69999999999997 381.408 120.16799999999998 380.38800000000003Q120.63599999999997 379.368 120.65999999999997 378.096V377.928Q120.63599999999997 376.632 120.16799999999998 375.61199999999997Q119.69999999999997 374.592 118.88399999999997 374.028Q118.06799999999997 373.464 117.01199999999997 373.464Q115.88399999999997 373.464 114.99599999999998 374.03999999999996Q114.10799999999998 374.616 113.61599999999997 375.648Q113.12399999999997 376.68 113.12399999999997 378.0Q113.12399999999997 379.32 113.62799999999997 380.352Q114.13199999999998 381.384 115.01999999999998 381.96000000000004Q115.90799999999997 382.536 117.03599999999997 382.536Z M133.35599999999997 384.288Q131.60399999999998 384.288 130.26 383.48400000000004Q128.91599999999997 382.68 128.15999999999997 381.264Q127.40399999999997 379.848 127.40399999999997 378.0Q127.40399999999997 376.152 128.15999999999997 374.736Q128.91599999999997 373.32 130.248 372.51599999999996Q131.57999999999998 371.712 133.30799999999996 371.712Q134.98799999999997 371.712 136.212 372.53999999999996Q137.43599999999998 373.368 138.10799999999998 374.856Q138.77999999999997 376.344 138.77999999999997 378.36H129.34799999999998Q129.46799999999996 380.328 130.59599999999995 381.432Q131.72399999999996 382.536 133.45199999999997 382.536Q134.72399999999996 382.536 135.59999999999997 381.93600000000004Q136.47599999999997 381.336 136.95599999999996 380.352L138.61199999999997 381.192Q138.15599999999998 382.128 137.39999999999998 382.82399999999996Q136.64399999999998 383.52 135.62399999999997 383.904Q134.60399999999998 384.288 133.35599999999997 384.288ZM129.49199999999996 376.752H136.71599999999998Q136.64399999999998 375.72 136.176 374.976Q135.70799999999997 374.23199999999997 134.96399999999997 373.82399999999996Q134.21999999999997 373.416 133.28399999999996 373.416Q132.37199999999999 373.416 131.53199999999998 373.812Q130.69199999999998 374.208 130.14 374.96400000000006Q129.58799999999997 375.72 129.49199999999996 376.752Z  M156.80399999999997 384.288Q155.02799999999996 384.288 153.65999999999997 383.48400000000004Q152.29199999999997 382.68 151.52399999999997 381.264Q150.75599999999997 379.848 150.75599999999997 378.0Q150.75599999999997 376.152 151.51199999999997 374.736Q152.26799999999997 373.32 153.63599999999997 372.51599999999996Q155.00399999999996 371.712 156.75599999999997 371.712Q158.48399999999995 371.712 159.85199999999998 372.504Q161.21999999999997 373.296 161.93999999999997 374.736L160.18799999999996 375.528Q159.70799999999997 374.568 158.79599999999996 374.028Q157.88399999999996 373.488 156.70799999999997 373.488Q155.53199999999995 373.488 154.63199999999995 374.06399999999996Q153.73199999999997 374.64 153.21599999999995 375.65999999999997Q152.69999999999996 376.68 152.69999999999996 378.0Q152.69999999999996 379.32 153.21599999999995 380.34000000000003Q153.73199999999997 381.36 154.65599999999995 381.93600000000004Q155.57999999999996 382.512 156.75599999999997 382.512Q157.93199999999996 382.512 158.85599999999997 381.91200000000003Q159.77999999999997 381.312 160.25999999999996 380.232L162.01199999999997 381.024Q161.29199999999997 382.56 159.92399999999998 383.424Q158.55599999999995 384.288 156.80399999999997 384.288Z M171.89999999999998 384.288Q170.14799999999997 384.288 168.79199999999997 383.48400000000004Q167.43599999999998 382.68 166.66799999999998 381.264Q165.89999999999998 379.848 165.89999999999998 378.0Q165.89999999999998 376.152 166.65599999999998 374.736Q167.41199999999998 373.32 168.76799999999997 372.51599999999996Q170.12399999999997 371.712 171.85199999999998 371.712Q173.62799999999996 371.712 174.98399999999998 372.51599999999996Q176.33999999999997 373.32 177.09599999999998 374.736Q177.85199999999998 376.152 177.85199999999998 378.0Q177.85199999999998 379.848 177.09599999999998 381.264Q176.33999999999997 382.68 174.99599999999998 383.48400000000004Q173.65199999999996 384.288 171.89999999999998 384.288ZM171.89999999999998 382.512Q173.09999999999997 382.512 173.98799999999997 381.93600000000004Q174.87599999999998 381.36 175.39199999999997 380.352Q175.90799999999996 379.344 175.90799999999996 378.0Q175.90799999999996 376.656 175.39199999999997 375.648Q174.87599999999998 374.64 173.96399999999997 374.06399999999996Q173.05199999999996 373.488 171.85199999999998 373.488Q170.67599999999996 373.488 169.77599999999995 374.06399999999996Q168.87599999999998 374.64 168.35999999999996 375.648Q167.84399999999997 376.656 167.84399999999997 378.0Q167.84399999999997 379.32 168.35999999999996 380.34000000000003Q168.87599999999998 381.36 169.79999999999995 381.93600000000004Q170.72399999999996 382.512 171.89999999999998 382.512Z M182.676 384.0V367.2H184.59599999999998V384.0Z M195.37199999999999 384.288Q193.61999999999998 384.288 192.27599999999998 383.48400000000004Q190.932 382.68 190.176 381.264Q189.42 379.848 189.42 378.0Q189.42 376.152 190.176 374.736Q190.932 373.32 192.26399999999998 372.51599999999996Q193.59599999999998 371.712 195.32399999999998 371.712Q197.004 371.712 198.22799999999998 372.53999999999996Q199.45199999999997 373.368 200.12399999999997 374.856Q200.796 376.344 200.796 378.36H191.36399999999998Q191.48399999999998 380.328 192.61199999999997 381.432Q193.73999999999998 382.536 195.468 382.536Q196.73999999999998 382.536 197.61599999999999 381.93600000000004Q198.492 381.336 198.97199999999998 380.352L200.628 381.192Q200.17199999999997 382.128 199.41599999999997 382.82399999999996Q198.65999999999997 383.52 197.64 383.904Q196.61999999999998 384.288 195.37199999999999 384.288ZM191.50799999999998 376.752H198.73199999999997Q198.65999999999997 375.72 198.19199999999998 374.976Q197.724 374.23199999999997 196.98 373.82399999999996Q196.236 373.416 195.29999999999998 373.416Q194.38799999999998 373.416 193.54799999999997 373.812Q192.70799999999997 374.208 192.15599999999998 374.96400000000006Q191.60399999999998 375.72 191.50799999999998 376.752Z M205.5 384.0V372.0H207.42V384.0ZM206.48399999999998 369.216Q206.004 369.216 205.644 368.856Q205.284 368.496 205.284 368.016Q205.284 367.512 205.644 367.164Q206.004 366.816 206.48399999999998 366.816Q206.988 366.816 207.336 367.164Q207.684 367.512 207.684 368.016Q207.684 368.496 207.336 368.856Q206.988 369.216 206.48399999999998 369.216Z M213.108 384.0V372.0H215.028V374.136Q215.748 373.008 216.88799999999998 372.48Q218.028 371.952 219.276 371.952V373.752Q218.22 373.752 217.248 374.1Q216.276 374.448 215.652 375.24Q215.028 376.032 215.028 377.4V384.0Z M227.172 384.288Q225.06 384.288 223.872 383.31600000000003Q222.684 382.344 222.684 380.616Q222.684 378.792 223.896 377.82Q225.10799999999998 376.848 227.292 376.848H230.628Q230.50799999999998 375.144 229.78799999999998 374.29200000000003Q229.06799999999998 373.44 227.628 373.44Q226.64399999999998 373.44 225.93599999999998 373.836Q225.22799999999998 374.23199999999997 224.772 375.096L223.04399999999998 374.424Q223.5 373.584 224.148 372.972Q224.796 372.36 225.66 372.036Q226.524 371.712 227.628 371.712Q229.308 371.712 230.39999999999998 372.37199999999996Q231.492 373.032 232.04399999999998 374.31600000000003Q232.596 375.6 232.572 377.496L232.548 384.0H230.772L230.676 382.392Q230.148 383.304 229.26 383.796Q228.37199999999999 384.288 227.172 384.288ZM227.268 382.608Q228.29999999999998 382.608 229.06799999999998 382.164Q229.83599999999998 381.72 230.25599999999997 380.904Q230.676 380.088 230.676 378.936V378.456H227.724Q226.04399999999998 378.456 225.33599999999998 379.00800000000004Q224.628 379.56 224.628 380.592Q224.628 381.528 225.32399999999998 382.068Q226.01999999999998 382.608 227.268 382.608Z  M251.124 384.288Q249.37199999999999 384.288 248.028 383.48400000000004Q246.684 382.68 245.928 381.264Q245.172 379.848 245.172 378.0Q245.172 376.152 245.928 374.736Q246.684 373.32 248.016 372.51599999999996Q249.34799999999998 371.712 251.076 371.712Q252.756 371.712 253.98 372.53999999999996Q255.20399999999998 373.368 255.87599999999998 374.856Q256.548 376.344 256.548 378.36H247.11599999999999Q247.236 380.328 248.36399999999998 381.432Q249.492 382.536 251.22 382.536Q252.492 382.536 253.368 381.93600000000004Q254.244 381.336 254.724 380.352L256.38 381.192Q255.92399999999998 382.128 255.16799999999998 382.82399999999996Q254.41199999999998 383.52 253.392 383.904Q252.37199999999999 384.288 251.124 384.288ZM247.26 376.752H254.48399999999998Q254.41199999999998 375.72 253.944 374.976Q253.476 374.23199999999997 252.732 373.82399999999996Q251.988 373.416 251.052 373.416Q250.14 373.416 249.29999999999998 373.812Q248.45999999999998 374.208 247.908 374.96400000000006Q247.356 375.72 247.26 376.752Z  M269.34000000000003 388.8V372.0H271.14000000000004L271.23600000000005 374.04Q271.908 372.96 272.952 372.336Q273.99600000000004 371.712 275.31600000000003 371.712Q276.92400000000004 371.712 278.148 372.504Q279.372 373.296 280.05600000000004 374.712Q280.74 376.128 280.74 378.0Q280.74 379.848 280.05600000000004 381.276Q279.372 382.704 278.148 383.496Q276.92400000000004 384.288 275.31600000000003 384.288Q273.99600000000004 384.288 272.96400000000006 383.67600000000004Q271.932 383.064 271.26000000000005 381.984V388.8ZM274.884 382.536Q276.012 382.536 276.88800000000003 381.96000000000004Q277.764 381.384 278.28000000000003 380.352Q278.79600000000005 379.32 278.79600000000005 378.0Q278.79600000000005 376.68 278.30400000000003 375.648Q277.812 374.616 276.924 374.03999999999996Q276.036 373.464 274.908 373.464Q273.85200000000003 373.464 273.024 374.03999999999996Q272.196 374.616 271.72800000000007 375.648Q271.26000000000005 376.68 271.26000000000005 378.0Q271.26000000000005 379.32 271.72800000000007 380.352Q272.196 381.384 273.01200000000006 381.96000000000004Q273.82800000000003 382.536 274.884 382.536Z M289.356 384.288Q287.244 384.288 286.05600000000004 383.31600000000003Q284.868 382.344 284.868 380.616Q284.868 378.792 286.08000000000004 377.82Q287.29200000000003 376.848 289.476 376.848H292.812Q292.692 375.144 291.972 374.29200000000003Q291.252 373.44 289.812 373.44Q288.82800000000003 373.44 288.12 373.836Q287.41200000000003 374.23199999999997 286.956 375.096L285.228 374.424Q285.684 373.584 286.332 372.972Q286.98 372.36 287.84400000000005 372.036Q288.708 371.712 289.812 371.712Q291.492 371.712 292.584 372.37199999999996Q293.676 373.032 294.228 374.31600000000003Q294.78000000000003 375.6 294.75600000000003 377.496L294.732 384.0H292.956L292.86 382.392Q292.332 383.304 291.444 383.796Q290.55600000000004 384.288 289.356 384.288ZM289.452 382.608Q290.48400000000004 382.608 291.25200000000007 382.164Q292.02000000000004 381.72 292.44000000000005 380.904Q292.86 380.088 292.86 378.936V378.456H289.908Q288.228 378.456 287.52 379.00800000000004Q286.812 379.56 286.812 380.592Q286.812 381.528 287.50800000000004 382.068Q288.204 382.608 289.452 382.608Z M304.164 384.288Q302.844 384.288 301.86 383.892Q300.876 383.496 300.216 382.84799999999996Q299.556 382.2 299.268 381.432L300.948 380.736Q301.356 381.552 302.172 382.05600000000004Q302.988 382.56 303.972 382.56Q305.09999999999997 382.56 305.86799999999994 382.116Q306.63599999999997 381.672 306.63599999999997 380.856Q306.63599999999997 380.112 306.072 379.656Q305.508 379.2 304.404 378.912L303.252 378.6Q301.62 378.168 300.70799999999997 377.29200000000003Q299.796 376.416 299.796 375.312Q299.796 373.608 300.91200000000003 372.65999999999997Q302.028 371.712 304.236 371.712Q305.292 371.712 306.15599999999995 372.024Q307.02 372.336 307.644 372.9Q308.268 373.464 308.556 374.23199999999997L306.876 374.976Q306.56399999999996 374.16 305.84399999999994 373.8Q305.12399999999997 373.44 304.092 373.44Q302.988 373.44 302.36400000000003 373.908Q301.74 374.376 301.74 375.216Q301.74 375.696 302.256 376.116Q302.772 376.536 303.78 376.8L304.98 377.112Q306.156 377.4 306.948 377.964Q307.74 378.528 308.148 379.24800000000005Q308.556 379.968 308.556 380.784Q308.556 381.864 307.98 382.65599999999995Q307.404 383.448 306.41999999999996 383.868Q305.436 384.288 304.164 384.288Z M317.508 384.288Q316.188 384.288 315.20399999999995 383.892Q314.21999999999997 383.496 313.55999999999995 382.84799999999996Q312.9 382.2 312.61199999999997 381.432L314.292 380.736Q314.7 381.552 315.51599999999996 382.05600000000004Q316.332 382.56 317.316 382.56Q318.44399999999996 382.56 319.212 382.116Q319.97999999999996 381.672 319.97999999999996 380.856Q319.97999999999996 380.112 319.41599999999994 379.656Q318.852 379.2 317.748 378.912L316.596 378.6Q314.964 378.168 314.052 377.29200000000003Q313.14 376.416 313.14 375.312Q313.14 373.608 314.256 372.65999999999997Q315.372 371.712 317.58 371.712Q318.63599999999997 371.712 319.5 372.024Q320.364 372.336 320.98799999999994 372.9Q321.61199999999997 373.464 321.9 374.23199999999997L320.21999999999997 374.976Q319.90799999999996 374.16 319.188 373.8Q318.46799999999996 373.44 317.436 373.44Q316.332 373.44 315.70799999999997 373.908Q315.084 374.376 315.084 375.216Q315.084 375.696 315.6 376.116Q316.116 376.536 317.12399999999997 376.8L318.324 377.112Q319.5 377.4 320.29200000000003 377.964Q321.084 378.528 321.49199999999996 379.24800000000005Q321.9 379.968 321.9 380.784Q321.9 381.864 321.32399999999996 382.65599999999995Q320.748 383.448 319.764 383.868Q318.78 384.288 317.508 384.288Z M330.44399999999996 384.288Q328.332 384.288 327.144 383.31600000000003Q325.95599999999996 382.344 325.95599999999996 380.616Q325.95599999999996 378.792 327.168 377.82Q328.38 376.848 330.56399999999996 376.848H333.9Q333.78 375.144 333.05999999999995 374.29200000000003Q332.34 373.44 330.9 373.44Q329.916 373.44 329.20799999999997 373.836Q328.5 374.23199999999997 328.044 375.096L326.316 374.424Q326.772 373.584 327.41999999999996 372.972Q328.068 372.36 328.932 372.036Q329.796 371.712 330.9 371.712Q332.58 371.712 333.67199999999997 372.37199999999996Q334.76399999999995 373.032 335.316 374.31600000000003Q335.868 375.6 335.844 377.496L335.82 384.0H334.044L333.948 382.392Q333.41999999999996 383.304 332.532 383.796Q331.644 384.288 330.44399999999996 384.288ZM330.53999999999996 382.608Q331.572 382.608 332.34000000000003 382.164Q333.108 381.72 333.528 380.904Q333.948 380.088 333.948 378.936V378.456H330.996Q329.316 378.456 328.60799999999995 379.00800000000004Q327.9 379.56 327.9 380.592Q327.9 381.528 328.596 382.068Q329.292 382.608 330.53999999999996 382.608Z M341.17199999999997 388.8V372.0H342.972L343.068 374.04Q343.73999999999995 372.96 344.784 372.336Q345.828 371.712 347.14799999999997 371.712Q348.756 371.712 349.97999999999996 372.504Q351.20399999999995 373.296 351.8879999999999 374.712Q352.57199999999995 376.128 352.57199999999995 378.0Q352.57199999999995 379.848 351.8879999999999 381.276Q351.20399999999995 382.704 349.97999999999996 383.496Q348.756 384.288 347.14799999999997 384.288Q345.828 384.288 344.79599999999994 383.67600000000004Q343.76399999999995 383.064 343.092 381.984V388.8ZM346.71599999999995 382.536Q347.84399999999994 382.536 348.7199999999999 381.96000000000004Q349.59599999999995 381.384 350.11199999999997 380.352Q350.62799999999993 379.32 350.62799999999993 378.0Q350.62799999999993 376.68 350.13599999999997 375.648Q349.64399999999995 374.616 348.756 374.03999999999996Q347.86799999999994 373.464 346.73999999999995 373.464Q345.68399999999997 373.464 344.856 374.03999999999996Q344.02799999999996 374.616 343.55999999999995 375.648Q343.092 376.68 343.092 378.0Q343.092 379.32 343.55999999999995 380.352Q344.02799999999996 381.384 344.84399999999994 381.96000000000004Q345.65999999999997 382.536 346.71599999999995 382.536Z M362.69999999999993 384.288Q360.948 384.288 359.592 383.48400000000004Q358.23599999999993 382.68 357.46799999999996 381.264Q356.69999999999993 379.848 356.69999999999993 378.0Q356.69999999999993 376.152 357.4559999999999 374.736Q358.21199999999993 373.32 359.568 372.51599999999996Q360.924 371.712 362.65199999999993 371.712Q364.42799999999994 371.712 365.78399999999993 372.51599999999996Q367.13999999999993 373.32 367.89599999999996 374.736Q368.65199999999993 376.152 368.65199999999993 378.0Q368.65199999999993 379.848 367.89599999999996 381.264Q367.13999999999993 382.68 365.79599999999994 383.48400000000004Q364.45199999999994 384.288 362.69999999999993 384.288ZM362.69999999999993 382.512Q363.9 382.512 364.78799999999995 381.93600000000004Q365.67599999999993 381.36 366.19199999999995 380.352Q366.70799999999997 379.344 366.70799999999997 378.0Q366.70799999999997 376.656 366.19199999999995 375.648Q365.67599999999993 374.64 364.76399999999995 374.06399999999996Q363.852 373.488 362.65199999999993 373.488Q361.47599999999994 373.488 360.5759999999999 374.06399999999996Q359.67599999999993 374.64 359.15999999999997 375.648Q358.64399999999995 376.656 358.64399999999995 378.0Q358.64399999999995 379.32 359.15999999999997 380.34000000000003Q359.67599999999993 381.36 360.5999999999999 381.93600000000004Q361.52399999999994 382.512 362.69999999999993 382.512Z M373.47599999999994 384.0V372.0H375.39599999999996V374.136Q376.11599999999993 373.008 377.256 372.48Q378.39599999999996 371.952 379.64399999999995 371.952V373.752Q378.5879999999999 373.752 377.61599999999993 374.1Q376.64399999999995 374.448 376.02 375.24Q375.39599999999996 376.032 375.39599999999996 377.4V384.0Z M388.25999999999993 384.288Q386.5079999999999 384.288 385.5479999999999 383.376Q384.5879999999999 382.464 384.5879999999999 380.808V373.704H382.49999999999994V372.0H384.5879999999999V368.256H386.5079999999999V372.0H390.10799999999995V373.704H386.5079999999999V380.616Q386.5079999999999 381.528 386.9999999999999 382.02Q387.4919999999999 382.512 388.37999999999994 382.512Q388.66799999999995 382.512 388.94399999999996 382.428Q389.2199999999999 382.344 389.67599999999993 382.008L390.4199999999999 383.568Q389.79599999999994 383.976 389.2919999999999 384.132Q388.78799999999995 384.288 388.25999999999993 384.288Z M400.23599999999993 384.288Q398.484 384.288 397.14 383.48400000000004Q395.79599999999994 382.68 395.03999999999996 381.264Q394.28399999999993 379.848 394.28399999999993 378.0Q394.28399999999993 376.152 395.03999999999996 374.736Q395.79599999999994 373.32 397.12799999999993 372.51599999999996Q398.46 371.712 400.18799999999993 371.712Q401.86799999999994 371.712 403.092 372.53999999999996Q404.316 373.368 404.98799999999994 374.856Q405.65999999999997 376.344 405.65999999999997 378.36H396.22799999999995Q396.34799999999996 380.328 397.47599999999994 381.432Q398.6039999999999 382.536 400.33199999999994 382.536Q401.6039999999999 382.536 402.4799999999999 381.93600000000004Q403.35599999999994 381.336 403.83599999999996 380.352L405.49199999999996 381.192Q405.03599999999994 382.128 404.28 382.82399999999996Q403.52399999999994 383.52 402.50399999999996 383.904Q401.484 384.288 400.23599999999993 384.288ZM396.37199999999996 376.752H403.59599999999995Q403.52399999999994 375.72 403.0559999999999 374.976Q402.58799999999997 374.23199999999997 401.84399999999994 373.82399999999996Q401.09999999999997 373.416 400.16399999999993 373.416Q399.25199999999995 373.416 398.4119999999999 373.812Q397.57199999999995 374.208 397.02 374.96400000000006Q396.46799999999996 375.72 396.37199999999996 376.752Z" fill="#6E6763"/></g></svg>